<?xml version="1.0" encoding="UTF-8"?>
<svg id="Layer_2" data-name="Layer 2" xmlns="http://www.w3.org/2000/svg" viewBox="0 0 960.39 520.57">
  <defs>
    <style>
      .cls-1 {
        fill: #454442;
      }
    </style>
  </defs>
  <g id="right2">
    <g>
      <path class="cls-1" d="m358.79,353.26c.83,1.24,1.72,2.65,2.7,4.26-.85-1.47-1.77-2.92-2.7-4.26Z"/>
      <path class="cls-1" d="m350.84,354.92c.09.88.22,1.82.4,2.81-.15-.97-.29-1.91-.4-2.81Z"/>
      <path class="cls-1" d="m903.96,282.37c-22.88,17.94-46.46,32.28-75.77,32.66.02-.46,0-.76,0-.76-.04-.24-3.62,1.58-5,1.69-.07-4.26,5.06-7.69,2.77-12.53,0-.09-2.16,1.29-2.7,1.91,1.14-33.3-36.2-85.12-20.07-16.1l-4.51-3.97c2.84-1.34,1.33-11.54-.92-11.84-1.3.38-2.62,6.89-1.07,9.84-2.49-3.22-6.52-10.16-10.52-8.66-.95,4.2,6.42,7.25,9.94,9.31-3.12-1.15-9.42,1.01-9.62,2.34.61,2.21,10.91,2.36,11.87-.62.11.15,5.38,4.5,5,4.75-2.42-2.22-9.84.96-9.87,2.01.24,1.14,8.15,3.21,10.23.61.14,1.06.28,2.14.42,3.22-1.59.59-2.81,1.55-3.35,2.02-16.9-9.13-14.04-.32-4.89,10.32-1.3-.33-2.72-.72-4.03-.99.91-2.1-2.2-6.81-4.93-6.77-.45,2.24,1.67,5.94,3.98,6.57-2.87-.53-7.01-4.52-10.32-1.38,2.46,3.61,7.41.92,10.25,1.7-2.06-.25-4.88,1.71-5.39,3.84-25.59-1.67.14,11.77,9.91,15.04-7.43,3.46-15.08,6.49-22.61,9.75,3.43-94.78.22-208.57-.78-320.25l-15,.16c-14.72,96.75,46.36,330.29-42.75,350.03,8.52-16.75,15.38-30.58,25.12-44.42-10.11-16.96-30.82,10.54-39.57,20.56-1.47-19.39-8.58-38.02-14.49-44.69-2.31-3.9-4.67-5.89-6.65-1.23-.83,2.13-1.29,4.45-1.5,6.9.89-9.25,4.26-10.06,8.16-5.66,1.58,2.67,3.14,6.22,4.54,9.14,12.16,23.38,7.67,41.47-4.82,63.79-.29-1.82-.59-3.7-.85-5.63-.02-.16-.05-.33-.07-.49.21-.38.38-.78.55-1.19-.6-1.17-1.05-2.5-1.41-3.93-.01,1.21-.15,2.22-.45,2.96-5.33-12.62-10.72-25.55-16.19-37.68-.39-3.99-.28-6.3.2-7.3-2.15-.42-2.76,2.34.47,10.79-2.34-3.09-4.41-5.68-6.25-7.82,6.82,9.72,15.5,28.83,22.14,54.42-6.37.84-12.45,1.12-18.45,1.12-17.21-46.51-17.34-64.74-10.84-62.54-15.17-10.63,5.81,46.88,9.75,62.54-11.08-.05-21.92-.95-33.8-.85,3.53-143.58-18.59-216.5-18.83-375.05l-30,.32c1.09,131.94,13.07,193.98,18.7,302.53-7.67-3.13-13.82,12.61-17.69,20.67-5.63-1.5-13.64,7.18-9.98,12.29-1.03,1.56-1.96,3.18-2.79,4.84,4.26-100.99.82-217.18-.24-335.07l-15,.16c1.07,119.43,4.58,235.94.08,338.54-13.27-11.65-7.9,5.9-3.13,13.48-3.71.29-.01,6.51,2.27,6.1-.06,1.21-.12,2.43-.18,3.65-.43,4.72-.44,11.61-.89,17.27-22.7-.58-54.15-1.48-72.13-2.48-30.08-.25-52.6,12.16-82.48,9.43,2.13-11.38,13.86-19.28,19.6-26.7-8.12-7.19-21.54,3.32-27.01,11.07,7.2-35.1,2.76-69.36-13.04-12.26-2.18.86-3.91,3.57-4.09,5.89-.16-2.11-.39-4.21-.71-6.3,2.69-.02,6.4-4.9,5.29-8.13-2.65.56-5.63,3.97-5.46,7.01-.31-2.03-.72-4.23-1.18-6.23,2.65-.08,6.04-5.66,4.65-8.5-2.56.63-5.39,4.68-4.91,7.4-.13-.64-.45-1.91-.63-2.54,1.7-2.87-.14-7.73-3.02-8.94-1.39,2.68-.12,7.46,2.64,9.04.18.62.5,1.9.64,2.53-.77-2.77-5.37-4.51-7.83-3.58.42,2.87,5.97,5.55,8.08,4.68.46,1.99.87,4.18,1.18,6.2-.74-3.03-4.94-4.82-7.53-4.17.33,3.11,5.46,5.9,7.7,5.28.31,2.09.54,4.18.71,6.28-.62-2.93-3.94-4.97-6.74-4.74-1.61-2.86-3.06-5.35-4.37-7.5,1.58,2.74,2.92,5.52,3.65,7.61-1.18.42-2.75,3.97-1.86,5.5-.66-1.25-1.36-2.47-2.08-3.68,1.62-.6,2.67-4.79,1.24-6.32-1.51.91-2.51,4.04-1.63,5.68-.3-.51-.61-1-.93-1.49.61-1.66-1.64-5.06-3.67-5.1-.55,1.87,1.76,5.09,3.45,5.24.32.49.63.98.93,1.48-1.06-1.58-4.34-1.79-5.73-.72.84,1.77,4.94,2.38,6.12,1.36.65,1.09,1.27,2.19,1.87,3.31-1.08-1.41-5.12-1.38-5.47-.68.87,1.92,4.74,2.61,6.03,1.7.59,1.13,1.16,2.27,1.71,3.43-.99-1.49-5.06-1.69-5.44-1.01.62,1.87,4.65,2.92,5.92,2.04.46,1.02.91,2.06,1.34,3.1-.14-.03-.27-.04-.38-.06-.79-1.45-4.75-1.18-4.82-.83.6,1.48,3.14,2.99,4.86,2.53.24.81.64,1.69,1.19,2.41-1-1.16-4.31-.74-4.23-.58.42,1.92,4.31,3.4,5.67,2.67.14.46.7,2.21.82,2.65-.78-.74-1.7-1.21-2.48-1.5-.93-.35-1.65-.45-1.65-.45,0,0-.01.37.06.94-.51.04-.84.13-.84.13.02.38,1.06,1.58,1.42,2.1-2.99-.47-5.97-.99-8.95-1.57.83-6.09-4.64-20.04-6.37-29.69,1.47,9.5,4.57,22.39,5.63,29.55-39.51-7.74-77.31-24.1-114.72-39.26.03-2.76.07-5.5.12-8.22,1.41-2.03,5.23-2.88,5.68-5.02,1.44-1.24,2.99-2.32,4.46-3.49.56.03,1.12.08,1.66.15,4.79,6.61,9.48-2.99,1.37-2.33,11.99-5.15,21.12-19.58,2.18-12.65-3.52.59-7.1,1.78-10.45,3.22,7.14-8.46-1.18-4.6-4.33.81.05-1.4.11-2.79.17-4.18.7-.3,2.4-1.66,2.29-1.64,0-.01-1.12-.84-2.16-1.3-.01-1.09.15-2.15.57-3.16,2.37.76,6-.13,7.54-1.12-.85-1.14-3.64-3.51-5.87-3.65.48-1.32.97-2.61,1.46-3.88,2.31,2.79,7.51,4.99,10.84,4.09-.76-3.58-6.2-7.42-9.88-5.31,1.01-.63,2.03-1.24,3.1-1.76,4.06,1.24,9.41-.29,12.37-3.29-3.52-3.54-10.89-1.86-12.6,2.81-1.1.53-2.13,1.16-3.16,1.79,5.65-10.52,26.49-50.24-1.6-29.66,7.92-73.93-7.74-98.44,59.34-145.36-.13,8.38,10.85,12.85,16.62,6.86,4.43,6.53,15.76,4.27,17.33-3.47,1.51,3.72,5.86,6.09,9.94,5.11.9,6.61,9.87,9.6,14.57,4.85,1.9,9.94,17.56,8.34,17.29-1.9,4.5,3.67,12.06,1.2,13.58-4.33,8.11,7.21,19.66-5.19,11.92-12.77,1.56-2.21,1.95-5.49.9-8.04,10.64,5.36,18.04-11.94,6.98-16.01.92-5.36-3.6-10.42-9.04-10.07,4.41-3.91,2.97-12.04-2.45-14.22,6.5-8.8-7.08-19.15-13.86-10.65-4.49-1.96-10.09.68-11.53,5.21-1.24-.31-2.56-.38-3.88-.17-4.63-7.92-17.95-4.37-18.02,4.81-2.42-1.6-5.74-2.09-8.64-1.01.84-7.07-7.71-12.09-13.48-8.07-.02-8.96-13.19-11.5-16.64-3.4-5.52-3.11-12.9,1.21-12.84,7.58-7.16-1.29-12.69,7.31-8.66,13.29-1.44,1.82-2.16,4.43-1.71,6.82-6.42,1.2-9.84,8.83-6.54,14.43-.01.15-.02.29-.03.44.11.01.21.01.31.02,1.49,2.32,3.9,3.91,6.6,4.38-.24,2.64.81,5.55,2.61,7.42-5.72,10.52-35.09,27.6-38.08,29.1,2.81-38.54,2.52-70.77,3.08-124.28l-29.99-.31c-1.34,108.29-8.16,163.14-14.93,243.22-1.26-1.28-2.36-1.97-2.36-1.97-1.98,4.06-2.1,10.38,1.41,13.8,0,.2-.03.4-.05.6-1.01-.02-2.05,1.87-2.32,3.66-.99-1.71-4.45-4.42-5.4-4.75-2.03,4.99-.21,12.55,4.69,15.02-.21,4.03.31,8.27-.69,12.29.42-5.66-3.81-11.7-8.96-13.45-2.44,5.77,3.55,15.11,8.52,15.45-.73,3.75-1.39,7.52-1.8,11.32.07-5.52-5.42-11.56-10.24-12.48-1.93,5.58,5.09,14.89,9.99,14.51-.33,3.75-.6,7.67-.64,11.45-.46-5.49-6.55-10.96-11.43-11.4-1.38,5.75,6.54,14.31,11.39,13.45.04,1.24.1,6.13.23,7.31-.76-.31-1.53-.63-2.3-.94-1.9-3.04-7.33-5.05-9.93-5.1,0,0,.04.43.15,1.12-47.39-21.79-87.02-39.74-138.92-41.51-14.81-10.07-41.23,6.24-57,1.49l-1,231h480l480.39-1.47v-251c-17.58.37-42.22,2.51-56.43,14.27Zm-658.17-10.58c21.51-16.37,12.46,3.6,5.7,16.06-4.73,1.51-8.51,7.98-5.41,12.65-.07.17-.13.34-.2.51-.75.54-1.48,1.12-2.19,1.71.58-10.36,1.29-20.62,2.1-30.93Zm-2.14,31.65c.61-.51,1.23-1.02,1.87-1.5-.44,1.14-.88,2.28-1.3,3.45-.23.01-.46.04-.68.07.03-.67.07-1.34.11-2.02Zm10.28,27.41c-.28-.04-.56-.07-.84-.09.35-.24.7-.48,1.04-.72-.15.24-.22.52-.2.81Zm-11.33-3.71c2.17-6.39,8.08-8.82,14.33-9.81-.27.49-.37.98-.3,1.43-5.52,1.82-10.43,5.39-14.08,9.89.01-.51.03-1.01.05-1.51Zm-.08,2.54c3.65-4.7,8.62-8.46,14.3-10.34,1.83,2.51,6.18,2.04,8.96,1.56-2.47,2.21-10.08,6.92-13.81,9.79-3.19-.14-6.43.47-9.52,1.57.02-.86.04-1.72.07-2.58Zm-.09,3.25c2.86-1.06,5.84-1.67,8.81-1.67-1.28.98-2.6,1.94-3.83,3.01-1.65-.26-3.25.5-5.05,1.31.02-.88.04-1.76.07-2.65Zm-30.25-32.44s.09,0,.14.01c-.16,3.67.09,8.02-1.92,11.25.41-3.78,1.06-7.53,1.78-11.26Zm-2.59,21.82c.05-2.85.34-5.69.56-8.54.3,0,.79-.01,1.4-.07-.32,3.93-.56,7.98-2.04,11.46l.08-2.85Zm-.12,4.89c.16-.02.38-.05.63-.09-.19,1.42-.36,2.81-.54,4.16l-.09-4.07Zm2.95,5.34c-.69.81-1.18,1.77-1.56,2.73-.34-.14-.69-.28-1.03-.42.35-2.62.71-5.24,1.06-7.88.5-.1,1.08-.24,1.7-.43-.06,1.99-.12,3.99-.17,6Zm.44-13.44c-.45.41-.86.84-1.21,1.31.24-2.22.47-4.49.67-6.8.25-.04.51-.08.78-.13-.09,1.87-.17,3.74-.24,5.62Zm.55-12.26c-.23.22-.46.45-.67.69.14-2.38.24-4.72.33-6.99.21.01.44.01.68.01-.12,2.09-.23,4.19-.34,6.29Zm.6-10.74c-.31.45-.58.89-.82,1.31-.14-1.91.64-3.82,1.09-5.65-.09,1.45-.18,2.9-.27,4.34Zm.49-7.74c-.31,1.02-.91,3.33-1.21,4.39,0-2.09.08-4.18.1-6.23.47.27.89.47,1.19.62-.02.4-.05.81-.08,1.22Zm.61-8.76c-.24-.98-.65-1.99-1.17-2.87.07-1.28.98-3.81,1.66-3.81-.17,2.23-.33,4.45-.49,6.68Zm161.22,89.91c-.1,1.02-.17,2.04-.23,3.06-1.53.97-2.57,3.3-2.79,4.62,0-2.11-.1-4.22-.23-6.33.49-.09,1.94-.41,3.25-1.35Zm-3.01,8.81c.41-.04,1.48-.19,2.61-.71-.01.95,0,1.88.02,2.81-1.4.87-2.46,2.78-2.81,4-.02.01-.04.03-.06.04.14-1.75.21-4.36.24-6.14Zm-7.8-3.24c-.59-1.28-1.23-2.54-1.88-3.79.87-.28,2.77-3.04,2.11-4.63.43,1.17.82,2.37,1.21,3.61-1.27.88-1.93,3.45-1.44,4.81Zm1.91,3.99c-.06,0-.13-.03-.19-.04-.44-1.1-.92-2.19-1.4-3.27.21-.13.73-.47,1.23-1.01.04.06.07.12.1.18.25.41.55.83.93,1.22-.58.81-.75,2.06-.67,2.92Zm.35-9.45s-.09.06-.23.15c-.13-.43-.27-.86-.42-1.28.24.27.51.54.81.78,1.73,1.38,4.09,1.59,4.75,1.61.13,2.1.23,4.21.23,6.31-.2-1.94-2.42-4.62-4.63-4.93-.03-.66-.29-2.37-.51-2.64Zm.9,14.34c.07.05.14.11.21.16.03.09.06.18.09.28-.08-.14-.18-.29-.3-.44Zm.24-4.41c.09-.08.19-.17.28-.26.02.14.05.28.08.43-.12-.06-.24-.12-.36-.17Zm1.19,7.49l-.64-2.01c.1-.05.26-.13.46-.24.03.02.05.03.08.05.1.92.19,1.84.26,2.75l-.16-.55Zm-.03-6.86c-.09-.54-.19-1.09-.3-1.63.19-.29.35-.62.45-.96,1.17.51,2.28.68,2.7.73-.03,1.87-.1,4.47-.25,6.31-.1-.61-.28-1.38-.64-2.15.44-.93.26-2.74.03-3.34,0,0-.9.43-1.68,1.27-.1-.08-.2-.16-.31-.23Zm.69,5.01c.36.15.71.27,1,.36-.37.41-.67.95-.84,1.49-.04-.61-.1-1.23-.16-1.85Zm1.42,4.6c-.28-.04-.56-.07-.84-.11-.01-.02-.02-.05-.03-.07.27-.13.62-.33.97-.6-.03.26-.07.52-.1.78Zm2.4-1.12c-.46.39-.85.83-1.18,1.28-.28-.03-.56-.07-.84-.11.05-.39.11-.8.15-1.2.79-.69,1.26-1.96,1.25-2.94.62-.09,1.41-.27,2.2-.64.09.86.17,1.72.26,2.55-.63.25-1.26.59-1.84,1.06Zm3.26-1.48c-.23.05-.47.11-.72.18-.09-.88-.19-1.78-.26-2.69.33-.21.67-.46.96-.76-.03,1.04.02,2.22.23,3.24l-.21.03Zm.3,3.32c.22-.3.4-.61.56-.92.14.38.27.72.4,1.02-.32-.03-.64-.06-.96-.1Zm1.95.2c.38-3.71,1.37-7.36,3.04-10.7,9.96-3.76-2.69-9.74-.3-.15-1.61,3.22-2.64,6.8-3.03,10.38-.02-3.38-.88-8.06.15-11.19-.31-.06-2.56.46-3.29.94-.02-.91-.03-1.83-.01-2.77,2.01-.92,3.18-4.4,3.1-6.14-.17-.05-2.29.57-2.9,1.01.07-1.09.14-2.19.27-3.28,1.52-1.54,1.9-3.83,1.83-5.66,0,0-.45.09-1.1.34,18.71-68.06,18.51,1.25,6.85,23.28-1.55,1.11-3.04,2.43-4.43,3.96-.06-.01-.12-.01-.18-.02Zm9.07-11.92c-.12,1.6-.24,3.15-.36,4.68-.17-.06-.38-.1-.59-.1-.58-.02-1.29.28-1.75.74.8-1.86,1.64-3.65,2.7-5.32Zm-3.17,7.12c-.11.06-.21.14-.31.2.06-.17.12-.34.18-.51.03.11.06.22.13.31Zm-2.62,4.03c-.33.26-.7.59-1.06.98-.53-.05-1.07-.1-1.61-.15,1.21-1.32,2.5-2.48,3.83-3.48-.25.81-.47,1.61-.68,2.41-.14.03-.31.1-.48.24Zm4.92,1.2c0,.08-.01.15-.01.23-1.36-.07-2.71-.17-4.07-.29.36-1.48.75-3,1.28-4.46.25-.17.49-.33.74-.48.58.38,1.69.14,2.42-.45-.11,1.88-.28,3.71-.36,5.45Zm.71.27c-2.85-14.64,13.14-33.31,27.42-26.27-6.27,6.7-17.45,15.52-19.63,26.58-2.6-.06-5.2-.16-7.79-.31Zm164.39-31.89c-3.63-4.35-8.55-14.52-6.92-18.46,9.37-.43,7.4,11.58,6.92,18.46Zm15.74-16.82c1.02-2.23,2.2-4.39,3.55-6.45,1.54.73,3.91-.26,5.39-1.33-3.02,8.08-1.09,18.26-9.61,23.32.24-5.25.46-10.43.67-15.54Zm-.92,20.97c.32.4.29.75-.05,1.14.02-.38.03-.76.05-1.14Zm-.55,11.2c1.07,1.3,2.67,1.68,3.13,1.78-.16,1.67-.2,3.35-.12,5.03-.29-2.64-4.03-3.89-3.01-6.81Zm5.5-7.54c-.37.87-.71,1.75-.99,2.65.07-1.93-.64-3.91.81-5.57.6.73.04,1.99.18,2.92Zm-.7,2.74c.2-.64.43-1.27.68-1.9.14.76-.26,1.38-.68,1.9Zm.66.95c0,.68-.01,1.35,0,2.01-.23-.69-.49-1.39-.75-2.08.18.03.44.06.75.07Zm-1.93,4.78c.17-1.33.43-2.65.77-3.95,1.11,1.62-.13,2.53-.77,3.95Zm-.3-.04c-.1-1.49-.75-3.34-1.96-4.39.36-.55.73-1.13,1.1-1.73,2.87,1.25.95,3.76.86,6.12Zm-1.61,8.99c-1.61-.6-2.27-1.65-1.96-3.38,1.3,1.1,2.94,1.19,3.41,1.2.06.7.15,1.4.25,2.09-.55.04-1.11.07-1.7.09Zm1.81-8.07c.34.01,1.19-.04,2.13-.31.72,2.17-2.24,3.22-2.24,5.23-.09-1.64-.05-3.28.11-4.92Zm1.66,7.76c-.35.27-.98.1-1.46.2-.11-.69-.2-1.39-.25-2.09.38-.07,1.45-.33,2.48-.93.17,1.21.31,2.06-.77,2.82Zm.07-26.91c-.78,1.97-2.13,4.23-3.86,6.05-2.65-4.08,2.44-6.97,5.2-9.25-.18,1.39-.35,2.8-.48,4.21-.44-.64-.86-1.01-.86-1.01Zm1.96,25.45c-.04-.45-.08-.9-.11-1.36.07.45.15.89.21,1.32-.03.02-.06.03-.1.04Zm19.12-3.78c-1.58.37-3.19.77-4.82,1.21,1.38-4.09,3.25-8.24,5.39-11.99-.22,3.67-.4,7.28-.57,10.78Zm-16.27,4.61c.51-6.84,2.87-13.79,6.6-19.82-4.1,5.73-7.48,11.92-7.21,19.96-.29.07-.6.12-.92.18.13-.49.23-1.2.22-1.59,0,0-.31.05-.76.18-.79-1.74.25-3.63.73-5.09.08-.02-1.2.03-1.72.19-1.12-2.3,2.25-3.02,2.57-5.03-.31-.12-2.16-.22-2.87.04-.01-.61-.02-1.21-.02-1.82,1.82-.05,3.71-1.27,4.6-2.77-.92-.45-3.32-.87-4.57-.02.02-.91.04-1.83.08-2.75,1.29.88,5.83.56,7.02-1.29-1.53-1.43-5.38-1.51-6.61.51,1.14-2.47,6.01-3.73,5.76-7.5-4.36-.4-4.73,5.01-6.03,7.35-3.22-16.57,10.26-8.81,11.86-17.7-2.4-3.41-10.04.33-7.94,3.9-.96.51-1.91,1.06-2.85,1.66,2.64-28.65,32.63-81.59,22.09-16.96.78,8.92-3.61,15.53-8.53,22.04,2.03-2.23,4.28-4.23,6.72-5.89-.5,5.03-1,10.36-1.3,15.49-4.25,8.64-6,15.76-16.92,16.73Zm22.03-5.84c-1.51.3-3.04.61-4.6.96.22-6.72-.22-14.12,5.18-19.17-.13,5.95-.32,12.02-.58,18.21Zm.6-19.23c-1.45,1.89-3.07,4.1-4.43,6.27,1.33-5.26-1.55-14.11,4.58-15.98-.03,3.21-.08,6.45-.15,9.71Zm.16-10.36c-.96.41-2.14,1-3.26,1.67.89-9.02,2.05-17.8,3.13-26.61.15,8.15.21,16.44.13,24.94Zm71.32-9.89c2,4.02,3.68,8.18,5.32,12.67-1.75-3.95-3.61-8.45-5.32-12.67Zm12.3,35.32c-.7-4.24-1.63-8.59-2.8-12.96,2.56,3.78,2.92,8.71,2.8,12.96Zm15.96-2.54c-5,1.43-9.77,2.45-14.38,3.16,1.69-10.43,8.23-20.97,13.53-28.95.98,9.01,1.29,17.23.85,25.79Zm1.01-.29c-1.59-17.35-.81-35.22,15.58-44.72,5.25-4.62,17.23-13.88,21.61-5.01-14,13.79-15.45,44.3-37.19,49.73Zm102.1-88.17c-13.17-56.38,17.26-10.93,18.48,14.34-.42-1.69-1.47-3.55-2.43-4.67-2.48,2.46-3.01,8.12-1.88,11.58-1.11-2.44-2.81-4.56-4.69-6.42,2.64-1.8,2.41-9.77-.85-11.94-1.44.43-2.81,8.02-.63,10.53-1.79-1.64-3.64-3.21-5.45-4.82,2.84-1.34,1.34-11.54-.91-11.85,0,0-1.05,1.34-1.64,3.25Zm8.14,14.2c-1.32-.86-4.15-1.69-6.23-1.05.04-1.4-1.12-3.42.32-4.18,1.97,1.74,3.99,3.45,5.91,5.23Zm-6.65-6.53l-.36-.31c-.01-.09-.02-.18-.03-.28.13.22.27.42.39.59Zm-.33,9.85c.12.02.23.04.35.07.06.56.13,1.12.19,1.69-.73-.84-1.49-1.63-2.27-2.36.51.23,1.1.45,1.73.6Zm-14.98,11.11c1.57-1.09,2.32-2.99,2.5-3.53,1.36.47,3.41.43,4.44,1.35-1.99-.05-4.02,1.55-4.72,3.24-1.04-.21-2.09-.41-3.09-.57.29-.14.59-.3.87-.49Zm7.46-2.62c-.04-.07-.07-.13-.1-.2.18.12.36.23.52.32l-.42-.12Zm.33.44s-.13.02-.14-.04l.14.04Zm.01,1.88c.3.94,1.3,1.98.38,2.82-.97-.27-1.94-.52-2.88-.76,1.02-.39,1.94-1.26,2.5-2.06Zm1.37,1.56c-.31-.77-.62-1.5-.94-2.21.25-.42.41-.77.49-.96,1.75.52,3.47,1.1,5.17,1.74-1.56-.28-3.58.18-4.72,1.43Zm5.64-1.1c4.13,1.27-1.03,5.58-3.46,3.34.15-.06.31-.12.47-.2,1.71-.85,2.73-2.63,2.99-3.14Zm-7.94,14.6c-8.54-3.26-35.49-15.63-10.93-14-.05.19-.08.31-.08.31,1.65-.21,4.27.2,6.07.62-.11.3-.17.5-.17.5,2.01-.08,4.06.27,6.08.93-.19.37-.28.62-.28.62.44.1,1.31.2,1.9.15.99,2.67,1.87,5.5,2.7,8.27-1.75.9-3.51,1.76-5.29,2.6Zm6.39-3.16c-.17.08-.34.17-.51.25-.8-2.69-1.66-5.42-2.61-8.03,1.15.37,2.32.76,3.49,1.18-.26.42-.39.71-.39.71,4.99-.42,4.52,4.87.02,5.89Zm3.01-11.22c-.45-.18-.89-.35-1.34-.53,1.11-2.04-1-6.87-3.89-7.42-.71,2.24.61,5.93,2.97,7.09-1.71-.64-3.44-1.23-5.19-1.75.69-1.33-.67-5.85-2.98-6.48-.49-.28-1.09-.54-1.44-.63,0,0-.1.64-.04,1.49-14.62-14.68,11.46-7.41,12.52,4.32-.01-1.12,0-2.26-.22-3.31.4.55.79,1.11,1.16,1.68-.18-.09-.29-.15-.29-.15-.93,2.09.32,6.17,2.45,7.28-2.57-.46-3.01-2.25-3.08-4.36-.05.91-.25,1.83-.63,2.77Zm.97.76c.87.36,1.74.74,2.6,1.14-.66-.14-1.58-.25-2.53-.06-.02-.36-.05-.72-.07-1.08Zm.41,8.35c-.01-.99-.05-1.99-.11-2.99.6.24,1.2.49,1.79.75-.37.49-.58.85-.58.85,0,.01.7.27,1.42.37-.84.32-1.68.66-2.52,1.02Zm4.29-4.57s.02.09.06.26c-5.11,3.21-3.84-.42-1.27-2.51,1.09.31,1.79,1.14,2,2.24-.49-.01-.79.01-.79.01Zm-1.07-2.55c.07-.22.22-.68.31-1.28.27.6.53,1.2.77,1.81l-1.08-.53Zm2.55,2.51c-.13-.36-.27-.72-.4-1.08.87.42,1.71.9,2.57,1.35-.57-.15-1.34-.31-2.17-.27Zm-.09-1.3c-1.33-1.15-1.82-3.45-2.31-5.18,1.68,1.56,3.1,4.92,4.73,6.46-.81-.43-1.6-.88-2.42-1.28Zm3.93,2.54c-.29-.16-.58-.31-.87-.43.01-.02.04-.05.05-.07l.85.49s-.02.01-.03.01Zm.48-.13l-1.13-.67c.15-.35.53-1.34.57-2.53.81.19,1.55.27,2.11.31-.06.74,0,1.64.29,2.41-.61.15-1.23.31-1.84.48Zm-7.11-8.48c-1.86-2.66-4.53-4.97-4.36-8.44,2.55.32,6.08-1.93,6.69-2.53,1.86,1.84,3.51,3.91,4.59,6.28-2.14-3.59-7.85-2.32-10.03.03,2.23,2.17,7.74,2.03,10.57,1.25.76,2.27,1.6,4.74,1.6,7.13-1-3.54-6.03-4.98-9.06-3.72Zm7.91-3.58c1.79-.83,4.11-3.16,4.06-5.82,1.53,4.78-1.16,8.64-2.16,12.88-.79-2.17-.88-4.83-1.9-7.06Zm4.42,10.78s-.08.02-.12.03c-.13-.77-.48-1.53-.89-2.13.34-.14.76-.32,1.13-.53-.03.89-.07,1.77-.12,2.63Z"/>
      <path class="cls-1" d="m353.65,347.7c1.48.84,3.34,2.97,5.14,5.56-8-12.05-9.14-7.71-7.95,1.66-.39-3.96.21-6.77,2.81-7.22Z"/>
      <path class="cls-1" d="m681.99,350.33c.24,3.2.56,6.33,1.24,9.07.03-2.37-.44-5.53-1.24-9.07Z"/>
      <path class="cls-1" d="m666.79,317.39c.96.19,2.23,1.02,3.61,2.28-1.63-2.57-2.95-3.64-3.61-2.28Z"/>
      <path class="cls-1" d="m661.01,320.36c-2.78-3.96-5.25-6.36-7.15-7,1.83,1.28,4.18,3.54,7.15,7Z"/>
      <path class="cls-1" d="m680.52,336.98c1.71,4.69,4.27,10.97,5.35,16.79-.82-14.16-9.62-34.03-8.83-49.22-.41,6,.1,15.1,1.99,28.04-1.61-4.68-5.4-9.96-8.64-12.92,3.78,5.96,9.18,20,11.59,30.66-.35-4.66-.54-9.46-1.47-13.35Z"/>
      <path class="cls-1" d="m684.64,363.34c.19.37.38.73.6,1.07,1.41-2.91,1.36-6.67.63-10.64.21,3.62-.1,6.87-1.23,9.57Z"/>
      <path class="cls-1" d="m589.14,357.48c-1.82,2-3.46,4.18-4.9,6.51,1.58-2.21,3.27-4.36,4.9-6.51Z"/>
    </g>
  </g>
</svg>