<?xml version="1.0" encoding="UTF-8"?>
<svg id="Layer_2" data-name="Layer 2" xmlns="http://www.w3.org/2000/svg" viewBox="0 0 960.39 526.3">
  <defs>
    <style>
      .cls-1 {
        fill: #b7aea3;
      }
    </style>
  </defs>
  <g id="right3">
    <path class="cls-1" d="m957.1,390.39c-23.33,1.06-46.65-.34-69.95-1.58-.2-.26-.26-.35-.46-.61,23.62-99.24-38.95-238.79-45.36-351-2.67-20.1-62.63-6.82-75.98-1.27,46.15,73.12-29.11,137.7-27.57,92.42,3.56-30.68,19.07-118.29-34.08-64.99,9.14,113.68-3.85,230.35,20.57,342.28-1.88.53-3.77,1.07-5.66,1.61.86-2.11.71-4.73.09-6.76-2.7,1.14-5.59,5.09-5.56,8.35-.13.03-.25.07-.37.1-.52-2.12-1.21-4.21-2.03-6.23,3.32-.82,6.07-8,3.65-11.49-2.98,1.39-5.37,7.02-4.19,10.2-1.04-2.41-2.22-4.74-3.45-7.05,2.93-.96,5.4-8.31,3.06-11.4-1.46-.07-5.21,6.44-4.08,9.54-1.15-2.07-2.32-4.13-3.48-6.19,3.1-.32,5.03-10.36,3.03-11.38-1.44-.07-5.21,6.44-4.07,9.52l-3.49-6.17c3.1-.33,5.04-10.36,3.03-11.38-1.44-.07-5.21,6.44-4.07,9.52l-3.49-6.18c3.1-.32,5.04-10.35,3.03-11.38-1.34-.07-4.71,5.57-4.24,8.84-1.27-3.83-2.76-11.62-6.99-11.52-2.26,3.6,3.61,8.87,6.23,11.95-2.55-2.09-9.13-2.13-9.75-.95-.15,2.25,9.43,5.77,11.31,3.3l3.53,6.28c-1.91-2.68-9.63-2.84-10.31-1.55,0,0,1.07,1.66,2.92,2.88-2.79,3.31-3.13,10.4.07,14-2.45-2.28-4.99-4.44-7.56-6.57,3.03-2.87,2.41-12.33-2.33-15.08-2.62,3.23-2.33,11.04.94,13.96-2.6-2.09-5.25-4.13-7.96-6.08,2.89-3.04,1.56-12.57-3.25-14.91-2.42,3.4-1.64,11.16,1.8,13.88-2.72-1.94-5.5-3.79-8.32-5.57,2.83-3.05.49-12.99-4.17-14.69-2.11,3.72-1.18,10.83,2.66,13.74-1.18-.71-2.35-1.45-3.55-2.14-.54-4.13-8.75-8.93-13.25-6.79,2,7.89,11.99,6.31,16.48,9.45-4.41-2.2-10.88.87-12.84,4.64,3.66,2.83,12.97-.33,14.34-3.69,2.82,1.77,5.58,3.62,8.3,5.55-3.81-2.45-11.11.19-13.1,3.84,3.87,3.11,12.77.45,14.55-2.81,2.7,1.94,5.33,3.97,7.93,6.05-3.65-2.67-11.09-.5-13.31,3.03,3.85,3.38,12.67,1.22,14.69-1.91,2.56,2.12,5.1,4.28,7.53,6.55-3.9-3.01-10.85-1.14-13.45,2.18,3.08,3.47,12.69,1.99,14.74-.96,2.38,2.31,4.63,4.76,6.66,7.38-3.43-3.65-10.51-2.33-13.36.78,3.68,3.49,10.44,3.22,14.41.65,1.94,2.68,3.61,5.56,4.82,8.64-2.36-4.56-9.45-4.45-12.88-1.86,1.98,2.41,5.52,3.89,8.7,3.88-21.14,6.55-44.33,14.99-67.7,12.3.59-1.45,1.18-2.89,1.77-4.34-4.04,1.37-8.08,2.73-12.12,4.1,1.83-5.24,3.66-10.49,5.5-15.73-3.99,3.63-7.98,7.25-11.97,10.88-2.73-4.66-8.19-7.98-14.1-8.57,4.23,4.6,6.85,10.32,7.48,16.22-16.98-15.01-21.78,3.94-36.34-.54-21.59-55.82,5.51-86.99.32-139.93-3.63-20.73-28.64-14.28-19.46-40.42-3.79-12.6-26.18-10.3-28.74,2.06,7.79,11.47-.88,4.93,3.96,14.24-18.78-3.91-35.95-27.91-40.04-29.46-4.08-1.55-5.41-.69-6.5-.86-12.5,1.71-8.69,27.31-39.63,34.45l-1.45-1.34c.11-2.43,1.53-4.71,1.75-7.15-2.01-.67-1.96-2.35-1.83-4.11,2.86-9.95-15.17-10.26-18.8-2.99-3.09,7.65-3.75,16.52-10.12,22.25,1.26,17.23-39.57,78.83-16.87,83.09-1.77,2.49-3.31,5.2-4.56,8.1,15.1,20.4,43.94,7.05,19.92,37.81-4.8,38.55-3.85,21.1-49.67,24.23.12-4.86,5.32-7.94,9.62-8.7-.17-.07-.34-.13-.52-.2,2.95-1.09,6.33-3.8,9.37-2.27-6.86-6.73-18.9-1.44-27.28-4.55,4.22-6.7,11.78-11.69,20.25-13.36-9.42-2.27-20.1.11-27.17,6.06-3.09-7.7-7.76-17.24-14.15-22.55,2.64,5.31.95,12.06,1.05,18.01-5.23-4.8-14.09-6.54-20.17-4.41,1.15.3,3.12,1.01,4.45,1.74,1.55,3.5,3.09,7,4.64,10.49-15.82-.64-30.14-1.16-43.57-1.54-17.87-13.51-36.87-25.18-58.16-32.42,12.78-17-.35-24.45-12.63-8.67-.07-1.92-.15-3.83-.22-5.74,6.02-3.71,8.9-11.3-.2-5.36-.05-1.25-.1-2.49-.15-3.73,4.64-2.55,9.4-4.38,14.07-5.5,17.62,6.21,4.42-14.91-.41-.74-4.57,1.08-9.18,2.84-13.69,5.27-.08-2.16-.17-4.32-.25-6.48,3.16-5.65,7.11-10.87,11.75-15.43,28.41-1.66,2.33-25.88-.6-.62-4.38,4.29-8.14,9.15-11.21,14.42-2.26-3.72,4.59-18.62-.61-15.89-3.72-104.2-10.29-209.43,5.09-312.74l-5.86-3.47c-12.34,2.3-26.49.39-37.9,5.54-9.6,94.94-3.44,194.48-7.71,290.89-3.49-12.53-16.41-15.05-17.3.03-8.29-8.92-7.45,13.27-6.74,18.42-27.93-38.2,10.46-88.89,2.31-131-23.15-47.45-40.22-102.68-12.03-152.49l-.71-8.56C129.96-9.15,40.96-7.83,28.07,20.16c-15.29,32.58,28.11,302.29,56.86,313.72.7,25.58,2.4,51.09,6.51,76.29-30.72,1.36-61.45,1.53-91.44-4.62v120.75h480l480.39-1.59v-134.49c-1.1.07-2.19.11-3.29.17Zm-540.42-70.77c-3.68,12-10.54,21.35-20.06,29.9l-.03.17c-5-15.74,12.35-28.61,16.4-44.47,2.69,3.98,4.21,9.58,3.69,14.4Zm6.49,111.58c-1.71-1.41-3.66-2.19-5.61-2.24l-.74-.91c1.52-8.84,5.87-20.75,10.87-28.25.73,9.42-3.36,22.08-4.52,31.4Zm98.42-82.43c-8.72,21.13,7.16,46.02,2.25,67.61l-.34.05c-6.65,16.59-28.85,24.13-43.5,20.85-18.64-1.15-21.64-7.53-33.09-3.78-2.31.76-12.32-.35-14.7-.47,12.29-28.35-1.9-54.3,34.5-59.93-9.07-29.25-29.42-59.66-23.27-90.7-.07.06-.13.12-.2.17l.55-.54c-.12.12-.24.24-.35.37,16.94-9.3,25.32-34.41,36.83-36.28.37-.06,2.25-.39,5.61.04,3.85,1.6,20.71,28.17,39.35,35.61l-.75.04c-.54,22-4.13,44.79-2.89,66.96Zm25.99,79.44c-14.25,8.56.64-22.54-7.18-41.7,12.83,5.95,1.41,31.73,14.68,41.2,0,0-5.49-.77-7.5.5Zm154.25-41.66c1.28,2.28,2.58,4.54,3.83,6.83-.89-1.08-2.84-2.63-4.85-2.94-.44-1.05-1.23-2.38-1.8-3.11,1.33-.18,2.4-.59,2.82-.78Zm-12.87-8.42c2.09,1.92,7.39,1.12,8.35.39l3.84,6.82c-1.55-2.35-6.47-3.84-9.09-2.64-.5-1.46-2.43-4.02-3.1-4.57Zm7.97,10.75c-.31.58-.61,1.26-.86,2.01-.63.21-1.01.4-1.01.4,0,0,.23.35.65.85-.74,2.81.1,6.23,1.29,8.64-2.05-2.65-4.32-5.12-6.72-7.45.63-.8,2.9-3.97,2.54-7.65,1.26,1.06,3.26,1.84,4.98,1.74-.25.38-.56.87-.87,1.46Zm6.49,13.88c-.99,2.5-.87,5.75-.46,8.24-1.23-3.14-2.94-6.06-4.89-8.78.37-.33,1.18-1.11,1.96-2.25.9,1.08,1.9,1.99,3.42,2.69-.01.04-.02.07-.03.1Zm3.07,8.03c.09-.09.19-.18.29-.27.08.04.16.07.25.11-.18.05-.36.1-.54.16Zm.82-13.7s-.66.54-1.47,1.51c-1.87-.58-3.52-.33-5.05.08.51-1.02.82-2.06.93-3.27,2.1.12,4-.56,4.61-.81,1.23,2.29,2.4,4.62,3.43,7.01-.24-.47-.94-.89-1.09-1.5-.36-1.15-.97-2.36-1.36-3.02Zm4.65,12.09c-.7-1.07-1.62-2-2.89-2.53.32-1.16.35-2.35.24-3.53.44-.09.79-.17.99-.23.81,2.01,1.5,4.08,2.01,6.19-.12.03-.24.07-.35.1Zm101.71-38.14c-1.7-5.82-10.96-18.77-11.03-18.87-.04.75.91,19.11,3.91,24.33-.27.21-.56.4-.84.61-2.06-4.56-6.62-11.37-6.62-11.37,0,0,.06,4.42.44,8.73-4.67-8.13-11.82-15.26-19.77-19.73,5.61,10.17,8.04,23.06,7.86,34.58-.4.25-.81.49-1.22.74-1.59-4.66-5.79-9.43-9.64-12.16,1.84,4.19,2.81,10.21,3.71,14.68-3.24.55-6.45,1.12-9.63,1.74-16.78-74.2-28.39-153.97-24.95-229.11,17.86-10.64,35.39-36.05,43.35-52.49,19.42,82.89,23.14,168.61,30.66,253.25-2.05,1.73-4.13,3.41-6.23,5.07Z"/>
  </g>
</svg>