<?xml version="1.0" encoding="UTF-8"?>
<svg id="Layer_2" data-name="Layer 2" xmlns="http://www.w3.org/2000/svg" viewBox="0 0 960.39 539.97">
  <defs>
    <style>
      .cls-1 {
        fill: #353431;
      }
    </style>
  </defs>
  <g id="right1">
    <path id="right1-2" data-name="right1" class="cls-1" d="m905.38,144.8c-32.02-65.99-85.97-91.41-34.55,5.14-13.11,3.65-24.99,11.38-32.66,22.69C768.08,94.66,664.88,375.81,691.81.09c-5,.29-10.01.5-15.03.62-2.97,50.57-3.61,101.29-1.9,151.92-4.28-1.91-6.43,1.37-7.92,6.94.3-161.34-30.21-249.34-16.53-17.42-32.83-26.77-22.39,19.57-12.33,42.96-36.26-4.54-51.51-5.33-73.32-36.29-27.61-17.46-36.6-17.79-36.64-9.96,23.99-8.87,47.57,23.02,59.99,41.48-.55.18-1.09.38-1.62.61-9.5,5.95-17.47,13.35-28.48,17.55-6.66-21.47-23.68-39.67-29.89-59.38.24,12.01,20.36,42.13,27.93,60.27-.28.13-.55.25-.82.38-19.18-44.46-32.22-29.52-22.21,11.07-8.1,5.17-14.25,11.64-15.98,21.34-7.64-11.63-23.47-15.93-36.67-12.21-23.56,11.59-30.57,41.1-64.24,33.06,20-20.19,3.39-27.7-16.05-16.58,81.61-128.12-28.98-69.62-63.51.97-32.55-72.19,3.13-170.08-28.13-237.42-3.77.18-7.88,3.32-7.51,7.51,5.02,56.06,7.19,112.37,6.47,168.66-23.19-40.78-70.04-69.99-36.37.01-35.62-46.4-47.58-47.68-101.41-34.67C117.71,114.12,57.72,115.21,0,113.54v426.39l480.39.04h480V158.21c-2.09-2.38-55.18-1.51-55.01-13.41Zm-598.27,49.35c-.16,7.07-.39,14.13-.64,21.19-11.93-7.26-66.55-82.56-38.77-80.05,13.71,9.27,43.58,35.77,39.41,58.86Zm25.94,50.03c-11.24-6.57-6.81-17.93-6.85-28.83,2.4,9.2,12.03,19.91,6.85,28.83Zm4.02,1.53c-.41-.01-.81-.08-1.2-.17.28-.54.55-1.09.82-1.62.18.59.35,1.19.51,1.79h-.13Zm8.1-3.71c-1.96,1.29-3.94,2.89-6.15,3.48,32.92-88.71,154.09-129.01,43.15,4.31-8.61-10.6-25.25-15.5-37-7.79Zm38.16,9.33c3.52-3.43,6.94-6.33,10.74-8.96-2.35,5.44-4.74,11.32-6.95,17.04-.75-2.91-2.06-5.63-3.79-8.08Zm6.32,10.22c-1.08-24.49,50.21-43.89,27.52-13.07-5.85,9.21-22.72,2.62-27.52,13.07Zm144.73-51.55c-8.58-39.67.26-52.19,19.51-9.62-6.81,3.06-13.61,6.04-19.51,9.62Zm115.67-21.59c-17.98-3.88-22.25-44.84-17.41-51.72,26.03-1.28,16.22,34.36,17.41,51.72Zm15.44-6.55c-.39,3.75,1.44,8.38-.53,11.79,0,0-.02-.01-.04-.01.27-10.62.45-21.23.51-31.85,1.85,4.72-.89,10.96.06,20.07Zm3.5-23.16c6.82-14.43,6.58,6.79,6.59,11.92-1.97-4.08-8.33-7.41-6.59-11.92Zm7.34,27.45c-3.36.51-6.48,1.78-8.77,3.96-.51-7.83-.53-19.93.25-25.35,5.81,6.11,9.42,12.71,8.52,21.39Zm15.12,2.32c-.04-.75-.07-1.5-.11-2.25.28.84.56,1.69.83,2.55-.24-.1-.48-.2-.72-.3Zm181.09-38.99c-53.72-103.15,7.06-59.09,33.01.42-10.62-3.08-22.18-3.12-33.01-.42Z"/>
  </g>
</svg>