<?xml version="1.0" encoding="UTF-8"?>
<svg id="Layer_2" data-name="Layer 2" xmlns="http://www.w3.org/2000/svg" viewBox="0 0 521.04 540">
  <defs>
    <style>
      .cls-1 {
        fill: #f1eae2;
      }
    </style>
  </defs>
  <g id="left4">
    <g>
      <path class="cls-1" d="m185.4,156.03c3.52.1,3.6-5.42.08-5.42-3.52-.1-3.6,5.42-.08,5.42Z"/>
      <path class="cls-1" d="m185.61,142.38c2.95.09,3.02-4.55.07-4.55-2.95-.09-3.02,4.55-.07,4.55Z"/>
      <path class="cls-1" d="m183.4,166.5c-.07,2.38,3.67,2.44,3.67.06.07-2.38-3.67-2.44-3.67-.06Z"/>
      <path class="cls-1" d="m185.08,177.42c-4.09-.12-4.18,6.3-.1,6.3,4.09.12,4.18-6.3.1-6.3Z"/>
      <path class="cls-1" d="m184.65,205.33c-3.52-.1-3.6,5.42-.08,5.42,3.52.1,3.6-5.42.08-5.42Z"/>
      <path class="cls-1" d="m184.76,198.42c2.95.09,3.02-4.55.07-4.55-2.95-.09-3.02,4.55-.07,4.55Z"/>
      <path class="cls-1" d="m184.42,221.12c2.38.07,2.44-3.67.06-3.67-2.38-.07-2.44,3.67-.06,3.67Z"/>
      <path class="cls-1" d="m182.82,326.95c4.09.12,4.18-6.3.1-6.3-4.09-.12-4.18,6.3-.1,6.3Z"/>
      <path class="cls-1" d="m180.54,298.26c-.1,3.52,5.42,3.6,5.42.08.1-3.52-5.42-3.6-5.42-.08Z"/>
      <path class="cls-1" d="m183.08,309.23c-2.95-.09-3.02,4.55-.07,4.55,2.95.09,3.02-4.55.07-4.55Z"/>
      <path class="cls-1" d="m185.29,285.11c.07-2.38-3.67-2.44-3.67-.06-.07,2.38,3.67,2.44,3.67.06Z"/>
      <path class="cls-1" d="m183.71,267.89c-4.09-.12-4.18,6.3-.09,6.3,4.09.12,4.18-6.3.09-6.3Z"/>
      <path class="cls-1" d="m181.36,243.53c-.1,3.52,5.42,3.6,5.42.08.1-3.52-5.42-3.6-5.42-.08Z"/>
      <path class="cls-1" d="m183.93,253.19c-2.95-.09-3.02,4.55-.07,4.55,2.95.09,3.02-4.55.07-4.55Z"/>
      <path class="cls-1" d="m184.22,234.16c2.38.07,2.44-3.67.06-3.67-2.38-.07-2.44,3.67-.06,3.67Z"/>
      <path class="cls-1" d="m211.83,162.41c4.41-1.78,1.67-8.61-2.75-6.85-4.54,1.65-1.67,8.79,2.75,6.85Z"/>
      <path class="cls-1" d="m203.41,139.14c-3.88,1.12-1.91,7.24,1.89,5.89,3.8-1.22,1.91-7.11-1.89-5.89Z"/>
      <path class="cls-1" d="m216.63,173.18c-2.97,1.34-.7,5.99,2.18,4.5,2.92-1.41.72-5.92-2.18-4.5Z"/>
      <path class="cls-1" d="m224.58,188.56c-5.02,2.64-.25,10.64,4.46,7.32,4.47-2.98.31-10-4.46-7.32Z"/>
      <path class="cls-1" d="m259.43,201.94c-4.04-1.99-7.1,4.55-3.25,6.62,4.47,2.38,8.08-4.63,3.25-6.62Z"/>
      <path class="cls-1" d="m242.96,203.06c-3.68-.99-5.8,4.89-1.69,5.95,4.02,1.25,5.38-4.86,1.69-5.95Z"/>
      <path class="cls-1" d="m269.18,195.42c-2.29,2.12,1.04,5.97,3.45,3.62,2.44-2.24-1.16-5.83-3.45-3.62Z"/>
      <path class="cls-1" d="m317.93,100.77c1.17-4.67-6.17-6.33-7.19-1.68-1.17,4.61,6.14,6.38,7.19,1.68Z"/>
      <path class="cls-1" d="m320.96,82.85c.74-3.97-5.49-5-6.1-1.06-.72,3.93,5.49,5.05,6.1,1.06Z"/>
      <path class="cls-1" d="m309.04,119.71c3.09.99,4.54-3.96,1.41-4.8-3.11-.93-4.52,3.9-1.41,4.8Z"/>
      <path class="cls-1" d="m305.22,131.42c-5.19-1.87-8.11,6.18-2.92,8.06,5.21,2.06,8.25-6.31,2.92-8.06Z"/>
      <path class="cls-1" d="m285.7,168.09c-2.24,4.21,4.45,7.65,6.59,3.33,2.21-4.28-4.52-7.63-6.59-3.33Z"/>
      <path class="cls-1" d="m293.08,153.87c-1.65,3.64,4.1,6.22,5.66,2.5,1.67-3.68-4.12-6.19-5.66-2.5Z"/>
      <path class="cls-1" d="m279.54,181.91c-1.69,2.71,2.63,5.42,4.29,2.58,1.73-2.79-2.68-5.34-4.29-2.58Z"/>
      <path class="cls-1" d="m346.75,94.46c4.13-.58,3.2-7.01-.93-6.4-4.18.5-3.22,7.11.93,6.4Z"/>
      <path class="cls-1" d="m344.62,78.34c3.49-.34,2.94-5.77-.55-5.39-3.52.27-2.95,5.83.55,5.39Z"/>
      <path class="cls-1" d="m349.29,108.94c2.79-.51,1.96-4.85-.82-4.3-2.81.47-1.97,4.89.82,4.3Z"/>
      <path class="cls-1" d="m353.28,126.79c4.69-1.16,2.95-8.42-1.75-7.3-4.8,1-2.97,8.62,1.75,7.3Z"/>
      <path class="cls-1" d="m367.81,142.57c-3.39,2.11-.64,7.97,3.14,5.65,3.73-2.07.4-7.75-3.14-5.65Z"/>
      <path class="cls-1" d="m359.88,142.92c2.85-1.87.44-6.18-2.64-4.73-3.34,1.47-.35,6.81,2.64,4.73Z"/>
      <path class="cls-1" d="m379.3,136.34c-2.24,1.66.33,5.3,2.61,3.52,2.33-1.69-.39-5.22-2.61-3.52Z"/>
      <path class="cls-1" d="m429.28,63.22c4.04,1.24,5.8-5.28,1.68-6.24-4.02-1.06-5.69,5.14-1.68,6.24Z"/>
      <path class="cls-1" d="m436.31,45.28c.72-3.47-4.72-4.46-5.32-1.02-.7,3.42,4.71,4.51,5.32,1.02Z"/>
      <path class="cls-1" d="m426.15,73.05c-2.67-.97-4.17,3.14-1.5,4.11,2.64,1.05,4.2-3.22,1.5-4.11Z"/>
      <path class="cls-1" d="m420.49,87.11c-4.33-2.04-7.6,4.58-3.27,6.75,4.3,2.32,7.82-4.75,3.27-6.75Z"/>
      <path class="cls-1" d="m398.9,116.05c-2.65,3.2,2.43,7.42,5.01,4.08,2.73-3.28-2.47-7.33-5.01-4.08Z"/>
      <path class="cls-1" d="m407.48,105.16c-1.93,2.87,2.63,5.99,4.54,2.96,2.02-2.95-2.66-5.87-4.54-2.96Z"/>
      <path class="cls-1" d="m390.87,126.45c-2.07,1.93,1.04,5.13,3.07,3.12,2.05-1.99-1.1-5.14-3.07-3.12Z"/>
      <path class="cls-1" d="m449.25,35.07c3.64,0,3.56-5.72-.08-5.62-3.64,0-3.56,5.72.08,5.62Z"/>
      <path class="cls-1" d="m449.04,20.94c3.06,0,2.99-4.8-.07-4.71-3.06,0-2.99,4.8.07,4.71Z"/>
      <path class="cls-1" d="m449.38,44.04c-2.47,0-2.41,3.88.06,3.81,2.47,0,2.41-3.88-.06-3.81Z"/>
      <path class="cls-1" d="m449.67,63.75c4.23,0,4.14-6.65-.1-6.52-4.23,0-4.13,6.65.1,6.52Z"/>
      <path class="cls-1" d="m450.08,91.74c3.64,0,3.56-5.72-.08-5.62-3.64,0-3.56,5.72.08,5.62Z"/>
      <path class="cls-1" d="m449.82,74.26c-3.06,0-2.99,4.8.07,4.71,3.06,0,2.99-4.8-.07-4.71Z"/>
      <path class="cls-1" d="m450.18,98.68c-2.47,0-2.41,3.88.06,3.81,2.47,0,2.41-3.88-.06-3.81Z"/>
      <path class="cls-1" d="m451.85,212.08c4.23,0,4.14-6.65-.1-6.52-4.23,0-4.13,6.65.1,6.52Z"/>
      <path class="cls-1" d="m451.37,179.59c-3.64,0-3.56,5.72.08,5.62,3.64,0,3.56-5.72-.08-5.62Z"/>
      <path class="cls-1" d="m451.58,193.73c-3.06,0-2.99,4.8.07,4.71,3.06,0,2.99-4.8-.07-4.71Z"/>
      <path class="cls-1" d="m451.24,170.62c2.47,0,2.41-3.88-.06-3.81-2.47,0-2.41,3.88.06,3.81Z"/>
      <path class="cls-1" d="m451.04,157.44c4.23,0,4.14-6.65-.1-6.52-4.23,0-4.13,6.65.1,6.52Z"/>
      <path class="cls-1" d="m450.54,122.92c-3.64,0-3.56,5.72.08,5.62,3.64,0,3.56-5.72-.08-5.62Z"/>
      <path class="cls-1" d="m450.73,135.7c-3.06,0-2.99,4.8.07,4.71,3.06,0,2.99-4.8-.07-4.71Z"/>
      <path class="cls-1" d="m448.51,114.12c0,2.47,3.88,2.41,3.81-.06,0-2.47-3.88-2.41-3.81.06Z"/>
      <path class="cls-1" d="m483.72,520.74c-31.86-3.81-68.28-6.7-98.62,5.03,1.09-5.86,4.08-12.36,7.54-16.67-4.57,1.57-9.79,4.95-13.48,9.2-1.62-14.88-9.13-30.43-21.98-37.67,7.88,14.4,4.38,33.13-3.42,47.12-1.63-9.8-5.25-20.57-9.1-28.61-.88,6.95-2.34,15.49-4.16,23.32-3.51-8.21-9.36-16.31-15.43-22.6,1.96,4.48,3.74,10.15,4.11,15.21-3.04-3.62-6.14-6.44-9.2-8.89,1.62,4.77,2.97,9.48,3.9,15.55-17.71-1.83-37.8-1.99-54.01,3.71.64-2.03,1.41-4.02,2.32-5.94,2.53,1.45,10.13.74,12.28-2.86-2.97-2.23-9.2-2.32-11.59,1.46,1.32-2.59,2.84-5.08,4.53-7.45,2.09,2,10.23,2.35,12.65-.81-2.41-2.75-9.13-3.57-11.73-.44,1.76-2.32,3.68-4.52,5.72-6.59,1.94,2.41,9.8,3.83,12.79.84-2.24-2.96-8.3-4.68-11.69-1.94,2.09-2.03,4.29-3.95,6.57-5.76,1.72,2.71,9.33,4.87,12.78,2.04-2.01-3.13-7.91-5.33-11.56-3.01,2.31-1.79,4.69-3.47,7.11-5.11,1.33,2.98,9.61,5.43,12.77,2.77-1.71-3.22-8.07-5.66-11.47-3.64,3.11-1.91,14.27-3.6,14.05-8.98-4.77-2.75-11.36,6.28-14.35,8.54,3.12-2.29,3.93-9.07,1.84-12.08-3.97,1.63-5.65,10.41-3.14,12.95-2.42,1.64-4.82,3.34-7.13,5.13,3.07-2.88,3.35-9.17,1.2-12.24-4.26,2.29-5.11,10.64-2.43,13.22-2.29,1.83-4.51,3.76-6.61,5.8,2.7-3.18,2.48-9.48.1-12.39-1.55,1.49-3,3.61-3.46,6.07-.91-4.44-5.42-4.23-9.3-2.8.96-1.96,1.39-3.25,1.88-4.89-2.73-.33-7.11-.17-10.16.54.74-3.08,1.31-6.28,1.62-9.34,6.55-2.55,11.61-8.34,14.36-14.47-2.22-.9-12.01-1.59-15.77.09-1.48-3.65-4.11-6.37-7.73-7.72.26-.79.52-1.58.79-2.35,10.92,3.22,26.18-1.61,31.85-12.27-8.88-5.13-26.12-1.61-30.47,8.34,2.71-7.33,5.85-14.49,9.4-21.45,6.89,4.32,27.31,2.41,33.26-7.61-8.31-6.08-24.74-5.85-31.32,3.92,3.7-6.88,7.81-13.53,12.34-19.9,9.54,6.14,25.58,5.84,33.98-2.72-7.04-7.45-24.56-8.99-31.54-.66,8.39-11.61,30.25-14.65,30.08-32.87-20.29-2.23-22.51,20.06-31.23,32.01,5.48-8.45,3.06-26.37-4.52-33.14-9.4,9.93-9.12,28.36,2.06,36.55-4.56,6.41-8.7,13.12-12.43,20.04,4.17-10.48-.7-25.91-9.29-32.11-8.84,10.39-2.6,32.19,7.33,35.83-3.58,7.01-6.74,14.23-9.47,21.61,2.85-9.71-4.46-26.06-13.75-30.45-6.16,12.2-.64,29.72,12.34,34.42-.27.79-.53,1.59-.79,2.39-3.74-1.03-8.32-.62-12.31.36-1.92-2.79-9.65-7.93-11.12-8.21-.24.86-.66,3.09-.79,4.44h0c-.19,2.01-.28,4.21-.11,6.34-3.37,1.45-6.54,3.9-9.26,6.6-.44-2.08-.86-4.17-1.27-6.26,4.86-.08,12.74-10.1,10.83-15.86-5.33.56-12.09,7.91-11.26,13.62-.81-4.2-1.57-8.42-2.28-12.64,4.87.06,13.02-9.72,11.29-15.54-5.35.4-12.32,7.54-11.66,13.28-.69-4.23-1.33-8.47-1.91-12.71,4.86.19,13.31-9.33,11.74-15.2-5.36.23-12.53,7.18-12.04,12.93-1.22-6.72,5.44-18.35-3.02-24.26-7.42,7.53,1.63,17.55,2.24,24.36-1.03-5.59-9.53-10.88-14.82-10.01-.32,6.26,10.23,13.9,15.12,12.28.58,4.25,1.21,8.49,1.9,12.73-1.19-5.56-9.85-10.59-15.11-9.57,0,0,.07.39.26,1.03-9.29,7.24-10.6,25.07-13.22,37.51-2.39,5.22-4.78,11.4-6.29,16.62-3.2-2.1-6.33-4.28-9.39-6.51,4.6-22.94,35.93-100.32-7.21-98.86-3.98,2.45-7.14,6.58-9.88,10.46,1.68-11.85-15.77,10.19-17.1,14.4,1.1-4.27,2.11-8.96,2.92-13.28l.14.16c7.03-6.05,13.83-12.69,20.32-19.91,23.73-6.48-4.01-26.23-.95-.68-6.16,6.85-12.59,13.18-19.22,18.98,2.1-11.64,3.37-23.56,3.66-35.4,8.07-1.68,7.73-19.09-.9-19.73-8.11,1.54-7.82,17.7-.25,19.7-.28,10.99-1.4,22.28-3.28,33.12,1.15-5.23-5.43-34.85-9.77-24.78,3.45,17.99,12.75,33.36,3.53,51.34-.13-.07-.26-.12-.39-.18-.22-3.58-1-9.1-4.14-10.8.67-10.67-5.55-33.92-15.48-17.12-7.39-87.87-24.33-218.95,69.76-263.62-7.42,9.73,12.86,4.43,1.63-.43,4.18-1.09,8.5-1.99,12.89-2.82-13.56,13.28,17.91,7.14.37-.07,49.78-.55,77.49-35.62,112.6-63.53,2.33,1.9,5.54,3.12,8.54,3.25-16.24,9.6,15.75,11.24.55.02,6.21.12,12.14-3.71,14.36-9.89,1.86,2.66,4.58,4.68,7.74,5.68-13.01,6.19,11,11.76,2.06.49,6.29,1.12,12.76-2.22,15.61-7.57,6.07,11.24,24.76,8.57,27.38-3.97,7.73,2.95,16.23-5.39,13.4-13.17,7.62,2.54,16.74-2.55,18.67-10.14,3.39,3.57,8.44,5.38,13.59,4.44-7.09,11.2,14.72,5.05,2.8-.8,5.58-2.18,9.29-7.51,9.5-13.41,7.06,1.03,13.38-6.48,11.3-13.17H0v540h521.04c-7.37-9.45-28.21-17.49-37.32-19.26Zm-204.74-14.93c.97-2.03,1.81-4.32,2.2-6.15.15-.58.23-1.16.3-1.69.23,1.47,1.54,3.73,2.19,4.45-2.06,2.09-3.99,4.31-5.76,6.65.38-.84.82-1.97,1.07-3.26Zm-6.33,10.85c.03-.18.07-.36.1-.55,1.49-2.05,2.83-4.08,3.97-6.03.1.1.19.18.26.24-1.71,2.39-3.25,4.9-4.58,7.52.09-.35.17-.76.25-1.19Zm-48.88-452.22c2.45-1.36,4.14-3.54,4.91-6.01,7.32,6.53,19.75-1.39,16.89-10.8,3.68.11,7.03-1.76,8.96-4.59,3.79,2.6,9.69,2.03,12.9-1.2,4.52,7.85,16.69,9.32,22.95,2.97-30.58,32.89-77.63,73.59-124.86,51.03,12.81-14.2,27.69-25.44,44.4-34.67,3.04,4.48,9.05,5.97,13.86,3.28Zm-151.66-26.27c-5.8,31.99-17.26,62.96-33.67,91.03,1.18-30.1-5.76-59.02-3.23-89.06,5.61-1.22,10.05-5.59,11.37-11.16,4.52,1.86,10.35,1.07,14.16-1.8,1.69,5.16,6.1,9.08,11.54,10.07-.05.31-.11.61-.17.92Zm8.88,90.33c-1.86-26.15-2.25-59.51,13.86-79.85,1.89,9.48,12.82,14.71,21.4,10.27,7.84,28.51,42.5,16.56,49.66-4.6,6.87,6.43,19.63,3.82,23.35-5,.71,2.01,1.88,3.81,3.37,5.27-83.79,32.57-47.79,80.89-108.65,147.41,2.07-19.9-1.17-53.58-3-73.5Zm47.96,277.43c-3.1,5.73,1.17,14.79-1.85,21.47-17.06-19.23-8.04-74.95,1.85-21.47Zm.27,14.57c.07-.59.14-1.19.2-1.8.46.66.13,1.14-.2,1.8Zm10.14,2.7c-.17.35-.33.71-.49,1.06-.59-2.41-2-5.51-3.38-6.72.42-10.52,12.04-11.86,17.2-20.35-5.07,8.31-9.19,17.17-13.33,26.01Zm29.66,55.5c.16-.28.33-.55.49-.83.29.74.6,1.4.94,1.93-.48-.36-.95-.72-1.43-1.1Zm.97-13.18c-3.02.1-.27,8.97-2.83,11.75-5.5-4.32-10.72-8.97-15.54-14.02,26.74-26.81,9.68-86.16-12.01-24.49,22.61-102.6,67.79-37.84,32.64,28.94-.7-1.43-1.5-2.27-2.27-2.18Zm46.61-21.01c.71,4.23,1.47,8.45,2.28,12.66-1-2.77-4.42-7.15-8.15-8.16-.16-1.92-.4-3.64-.8-5.42,2.89,1.03,5.7.98,6.66.93Zm-13.1,3.54s.21.93.74,2.24c-6.23,1.66-11.37,11.6-14.68,17.97,2.71-11.28,3.36-25.77,12.1-33.7,1.11,5.84,8.84,7.6,8.08,14.12-1.4-.59-5.96-.8-6.25-.63Zm7.98,24.97c-.79.6-1.58,1.22-2.37,1.85h0c.39-1.56.73-3.11.97-4.67.69.75,1.5,1.48,2.42,2.06-.34.26-.68.51-1.02.76Zm8.96-6.57c-.4.46-.85.86-1.38,1.17-1.96-2.36-5.55-3.9-8.28-4.18.12-1.88-.22-3.7-.04-5.52,3.52,1.79,7.4,1.6,8.58,1.51.44,2.26.91,4.52,1.39,6.77-.09.09-.17.17-.26.26Zm4.45-2.6c-.39.52-1.11.69-1.64,1.09.74-.68,1.47-1.3,2.2-1.86-.2.25-.38.5-.56.77Zm37.89,64.54c.59-.51,1.17-1.04,1.72-1.61.18.18.37.35.55.51-.8.36-1.55.72-2.27,1.1Zm6.46-2.74c-.19.06-.38.13-.57.19-.92-3.11-.2-4.97,2.14-7.18.38.28.7.48.88.6-.97,2.06-1.78,4.21-2.46,6.38Z"/>
    </g>
  </g>
</svg>