<?xml version="1.0" encoding="UTF-8"?>
<svg id="Layer_2" data-name="Layer 2" xmlns="http://www.w3.org/2000/svg" viewBox="0 0 504.09 540">
  <defs>
    <style>
      .cls-1 {
        fill: none;
      }

      .cls-2 {
        fill: #f1eae2;
      }
    </style>
  </defs>
  <g id="right4">
    <g>
      <path class="cls-1" d="m353.32,427.7c18.8-17.87,8.31-30.73-4.35-6.15,1.53,2.03,2.98,4.09,4.35,6.15Z"/>
      <path class="cls-1" d="m256.21,479.75c-.04-.07-.07-.13-.1-.2-2.99,15.32,13.09,19.45,23.18,26.83-8.63-10.1-16.99-16.96-23.07-26.63Z"/>
      <path class="cls-1" d="m339.46,413.68c-2.34-2.5-4.72-4.86-7.14-7.06-.08,5.28-.54,10.53-1.28,15.76,2.9-2.7,5.71-5.6,8.42-8.7Z"/>
      <path class="cls-1" d="m291.66,387.38c.75,4.6,1.48,9.63,2.07,14.26.51-4.66,1.94-10.66,4.16-15.48-2.65-.64-5.13-2.06-6.03,1.33l-.19-.1Z"/>
      <path class="cls-1" d="m242.1,475.5c-.93-.36-1.93-.78-2.98-1.24,1.64,4.37,3.04,9.56,4.04,15.25,5.28.9,10.73,2.54,15.9,4.83-6.42-5.65-12.04-12.05-16.95-18.83Z"/>
      <path class="cls-1" d="m291.92,384.88c-.23-.03-.46-.07-.68-.1h0c.06.35.12.7.18,1.04.17-.32.34-.63.51-.95Z"/>
      <path class="cls-1" d="m275.29,433.37c.25-2.39.83-4.5,1.79-6.31-28.18-12.84-10.2,21.52,2.61,29.35-3.13-8.66-5-15.19-4.4-23.04Z"/>
      <path class="cls-1" d="m115.04,502.64c29.69-2.61,57.45-1.98,80.42,1.26-15.45-51.54,1.15-59.34,25.94-16.73,4.19-22.8-5.21-27.1-12.83-43.8,11.03,3.64,21.27,17.58,30.03,27.04-8.04-12.28-14.14-26.02-19.16-39.52-9.16,2.45-17.03-21.17-7.57-23.99,9.07-3.28,17.17,19.46,8.89,23.5,5.32,14.31,11.83,28.82,20.59,41.61.39-11.4,2.36-21.99,5.1-32.17-8.79-2.04-.58-24.9,6.75-14.13-.47,16.24-13.29,28.5-10.45,47.94l-.26-.02c3.49,4.93,7.33,9.64,11.58,14.03-10.95-10.4-2.63-48.48,1.55-16.42,7.67-7.76,22.84-2.46,31.88,2.3-2.48-16.03-50.63-47.17-14.86-51.38,1.36-2.56,4.98,1.14,7.27.92-3.93-12.44-15.39-15.03-25.59-23.63-2.44-7.41,14.8,5.6,16.75,8.73-4.22-6.58-8.76-12.98-13.58-19.15-23.25-3.54,2.58-23.44.63-.49,5.15,6.58,9.96,13.43,14.44,20.48.64-6.15,1.05-12.4,1.21-18.76-9.55-4.08,2.33-18.84,3.01-3.77,2.04-2.5,4.64-3.49,8.36-3.97-24.73-30.12-7.17-29.82,4.46-.11-1.95-11.17-4.31-22.26-7.12-33.24-8.31.09-13.01-16.63-5.07-20.31,8.88-1.42,13.78,16,6.23,20.01,2.84,11.1,5.23,22.33,7.19,33.62,6.92-1.84,8.82-15.45,13.34-21.86-10.25-18.16,26.95-30.06-9.91,22.39,6.19,3.99,13.69-15.7,9.93,2.91h0c10.02,3.9,19.22,9.96,27.36,17.04.02-.66-.08-2.92-.1-3.6-15.96-15.03,14.51-16.14.75-.03-1.01,6,5.39,8.21,8.68,12.65.71-.84,1.42-1.7,2.11-2.57-1.22-17.54,15.41-4.94-1.59,3.14,2.27,2.45,4.45,5.02,6.53,7.67,2.96-6.99,12.53-20.44,19.41-10.54,34.26-18.47,21.72-79.31,14.74-97.21,7.33-86.07,10.93-153.93-86.1-218.87-2.58,5.13-8.4,8.48-14.44,7.79-.31,13.51-19.57,18.5-26.52,7.14-2.38,4.15-8.9.36-6.45-3.78-8.12,2.82-17.34-2.75-18.73-11.04-10.35,16.84-36.14-1.33-23.6-16.77-6.31-.36-11.53-4.74-13.14-10.62-10.21,8.69-26.81-1.87-23.08-14.9-6.24,1.88-13.39-1.16-16.44-6.6-3.74,6.98-14.21,9.42-20.7,4.6-4.69,16.09-30.35,11-28.23-5.9-7.07,1.91-14.77-2.29-17.13-8.92-9.71,3.75-20.64-4.7-19.37-15.08C50.55,24.07,48.25.4,50.09,0h-26v520.2c25.9-4.73,55.28-15.9,90.95-17.56Zm148.69-334.1c4-.09,4.04,6.19.04,6.16-4,.09-4.04-6.19-.04-6.16Zm-2.66-10.42c-.07-3.35,5.19-3.39,5.17-.04.07,3.35-5.19,3.39-5.17.04Zm2.86,38.99c2.71-.06,2.74,4.19.03,4.17-2.71.06-2.74-4.19-.03-4.17Zm-2.18-12.71c-.06-2.71,4.19-2.74,4.17-.03.06,2.71-4.19,2.74-4.17.03Zm2.95,122.27c-4.64.1-4.69-7.19-.05-7.15,4.64-.1,4.69,7.19.05,7.15Zm-.25-35.62c4-.09,4.04,6.19.04,6.16-4,.09-4.04-6.19-.04-6.16Zm-2.17-11.91c-.06-2.71,4.19-2.74,4.17-.03.06,2.71-4.19,2.74-4.17.03Zm4.88,29.98c.07,3.35-5.19,3.39-5.17.04-.07-3.35,5.19-3.39,5.17-.04Zm-2.88-42.36c-4.64.1-4.69-7.19-.05-7.15,4.64-.1,4.69,7.19.05,7.15Zm-2.73-21.25c-.07-3.35,5.19-3.39,5.17-.04.07,3.35-5.19,3.39-5.17.04Zm2.51-10.45c-4,.09-4.04-6.19-.04-6.16,4-.09,4.04,6.19.04,6.16Zm-.66-92.67c2.71-.06,2.74,4.19.03,4.17-2.71.06-2.74-4.19-.03-4.17Zm.1,14.46c4.64-.1,4.69,7.19.05,7.15-4.64.1-4.69-7.19-.05-7.15Zm-12.62-14.46c3.53.23,3,5.77-.49,5.37-3.48-.29-2.95-5.7.49-5.37Zm-4.97,16.29c.46-4.13,6.97-3.32,6.38.84-.47,4.17-6.96,3.27-6.38-.84Zm-.95,13.23c.44-2.77,4.82-2.07,4.3.73-.44,2.81-4.81,2.03-4.3-.73Zm-2.92,15.09c.57-2.74,4.92-1.85,4.26.93-.57,2.78-4.9,1.82-4.26-.93Zm-4.08,12.56c1.04-3.98,7.39-2.34,6.2,1.72-1.08,4.11-7.35,2.21-6.2-1.72Zm-4.14,12.94c1.43-3.07,6.48-.9,4.86,2.34-1.45,3.24-6.38.76-4.86-2.34Zm-12.41,14.78c.65-4.5,7.84-3.27,7.36,1.1-.53,5.08-8.56,4.11-7.36-1.1Zm-14.12,5.27c.55-2.61,4.33-2.22,4.32.45.05,3.02-5.01,2.48-4.32-.45Zm-15.09-7.04c1.85-3.81,7.78-.6,5.67,3.04-1.97,3.64-7.57.6-5.67-3.04Zm-14.17-5.28c.84-3.47,6.37-1.83,5.17,1.54-1.06,3.26-6.07,1.77-5.17-1.54Zm-14.2-4.82c3.71-3.3,8.81,2.63,4.81,5.71-3.58,3.07-8.34-2.7-4.81-5.71Zm-17.1-7.53c2.67-5.02,10.34-1.37,8.15,3.88-2.18,5.63-11.13,1.38-8.15-3.88Zm-13.35-9.41c2.71-3.15,7.58.76,5.07,4.09-2.48,3.51-7.98-.9-5.07-4.09Zm-14.84-11.61c.45-4.88,8.27-4.24,7.74.7-.28,5.17-8.28,4.38-7.74-.7Zm-8.29-17.34c2.94-1.71,5.56,2.78,2.68,4.53-2.91,1.88-5.7-2.89-2.68-4.53Zm-9.26-19.93c5.4-2.11,8.72,6.08,3.44,8.35-5.42,2.5-9.01-6.35-3.44-8.35Zm-2.34-17.8c1.16,4.02-5.21,5.88-6.28,1.74-1.21-4.1,5.21-5.78,6.28-1.74Zm-3.31-16.5c1.09,4.88-6.65,6.57-7.61,1.57-1.09-4.96,6.68-6.49,7.61-1.57Zm-4.09-15.48c.6,3.35-4.7,4.23-5.2.84-.59-3.37,4.72-4.21,5.2-.84Zm-4.92-15.47c-3.38.51-4.09-4.83-.69-5.22,3.38-.48,4.08,4.81.69,5.22Zm-2.13-22.52c5-.25,5.42,7.48.4,7.76-5.05.44-5.49-7.66-.4-7.76Z"/>
      <path class="cls-1" d="m237.81,473.65c-4.69-2.29-8.95-4.99-13.5-8.76-6.5,16.65-1.44,27.26,17.83,24.45-1.06-5.84-2.57-11.23-4.33-15.68Z"/>
      <path class="cls-1" d="m195.2,459.68c-6.65-1.07-8.94,50.12,14.46,46.68-4.46-7.99-5.04-20.02,7.09-19.57-6.71-16.98-15.95-28.95-21.55-27.11Z"/>
      <path class="cls-1" d="m344.66,428.7c3.98-6.29-.33-9.88-4.68-14.46-2.89,3.28-5.89,6.35-8.99,9.19l-.09-.1c-.44,2.81-1.01,5.87-1.68,8.65,1.07-2.62,10.85-16.91,11.1-10.13-9.54,12.31-15.17,13.29.88,23.27.72-5.89,1.8-11.07,3.46-16.42Z"/>
      <path class="cls-1" d="m424.09,77c-4.79,0-9.04-2.32-11.68-5.9-6.66,6.09-18.75,3.47-22.32-4.68-3.02,1.28-6.84,1.43-9.97.38-5.05,9.76-21,9.29-25.47-.75-29.37,35.25-6.19,32.1,16.16,56.85,59.1,72.4,57.73,10.1,56.28-46.21-.97.21-1.98.32-3.01.32Z"/>
      <path class="cls-1" d="m344.12,489.17c16.24-11.37,21.39-38.12,39.94-49.99,4.37-4.1,13.16-11.18,7.37-16.63-23.61,14.93-40.99,39.41-47.31,66.62Z"/>
      <path class="cls-1" d="m276.62,408.84c-.02-2.66.17-4.94.6-7.03-1.67-3.64-2.93-8.48-2.02-11.93-1.8,5.81-.68,13.73-1.93,20.05l-.15-.02c1.65,2.61,3.39,5.51,4.93,8.2-.76-2.64-1.38-6.07-1.43-9.28Z"/>
      <path class="cls-1" d="m352.01,429.7c-1.28-1.96-2.63-3.91-4.04-5.84-2.66,6.84-4.91,14.83-5.34,22.49,2.71-5.57,5.99-11.39,9.38-16.65Z"/>
      <path class="cls-1" d="m329.21,422.09c-11.3-20.71-1.14-24.82,1.29-1.2,6.63-18.6-12.91-26.21-26.95-32.79-7.63,14.54-11.18,17.94-7.81,32.36,8.98,1.48,18.15,5.78,26.93,11.1,2.04-1.79,2.94,2.91,5.08,3.28.54-4.18,3.31-8.76,1.46-12.76Z"/>
      <path class="cls-1" d="m285.88,416.89c-1.92-2.71-3.54-5.46-5.22-8.26.34,7.92-3.61,9.68.04,14.2,2.13-1.58,4.72-2.37,7.4-2.66-.76-1.08-1.47-2.23-2.22-3.28Z"/>
      <path class="cls-1" d="m286.53,412.48c-8.43-14.04,5.74-7.88,7.42,1.65-1.87-58.97-34.57-13.68.12,6.11-2.63-1.86-5.55-4.54-7.55-7.76Z"/>
      <path class="cls-2" d="m50.09,0c-1.79.49.42,24.01,18.07,19.55-1.27,10.38,9.66,18.83,19.37,15.08,2.36,6.63,10.06,10.83,17.13,8.92-2.12,16.91,23.55,21.99,28.23,5.9,6.49,4.81,16.96,2.38,20.7-4.6,3.04,5.44,10.2,8.48,16.44,6.6-3.72,12.98,12.98,23.59,23.08,14.9,1.61,5.88,6.83,10.27,13.14,10.62-12.57,15.35,13.34,33.63,23.6,16.77,1.39,8.29,10.62,13.86,18.73,11.04-2.44,4.13,4.07,7.93,6.45,3.78,6.95,11.36,26.2,6.37,26.52-7.14,6.03.68,11.86-2.67,14.44-7.79,97.25,65.2,93.34,132.8,86.09,218.88,7,17.91,19.54,78.7-14.72,97.2-6.88-9.9-16.44,3.54-19.41,10.54-2.08-2.66-4.26-5.22-6.53-7.67,17.01-8.1.35-20.66,1.59-3.14-.69.87-1.4,1.72-2.11,2.57-3.29-4.43-9.69-6.64-8.68-12.65,13.76-16.14-16.71-14.98-.75.03-1.15,6.37-19.32-13.29-27.26-13.43h0c1.32-2.95,2.24-12.22-2.51-6.83-1.71,3.58-3.16,5.9-7.42,3.92,36.96-52.73-.44-40.32,9.91-22.39-4.52,6.4-6.43,20.03-13.34,21.86-1.96-11.3-4.34-22.52-7.19-33.62,7.55-4.01,2.65-21.43-6.23-20.01-7.95,3.67-3.25,20.4,5.06,20.31,2.81,10.98,5.17,22.07,7.12,33.24-11.68-29.78-29.15-29.93-4.46.11-3.73.48-6.33,1.47-8.36,3.97-.68-15.09-12.56-.3-3.01,3.77-.16,6.36-.57,12.61-1.21,18.76-4.48-7.05-9.3-13.9-14.44-20.48,1.93-22.97-23.86-3.02-.63.49,4.82,6.16,9.36,12.56,13.58,19.15-1.94-3.13-19.18-16.14-16.75-8.74,10.21,8.61,21.66,11.19,25.59,23.64-2.29.22-5.91-3.48-7.27-.92-35.75,4.25,12.34,35.29,14.86,51.38-9.39-5.28-23.5-9.03-31.96-2.94-4.43-31.32-12.16,7.28-1.47,17.06-4.26-4.39-8.09-9.1-11.58-14.03l.26.02c-2.83-19.47,9.97-31.69,10.46-47.94-7.33-10.78-15.54,12.09-6.75,14.12-2.74,10.18-4.72,20.78-5.1,32.17-8.77-12.79-15.27-27.31-20.59-41.61,8.28-4.04.18-26.78-8.89-23.49-9.45,2.81-1.58,26.43,7.58,23.98,5.01,13.5,11.11,27.24,19.16,39.52-8.72-9.46-19.04-23.41-30.02-27.05,7.6,16.7,17.01,21.03,12.81,43.81-11.4-9.62-17.8-33.66-26.51-28.67-7.85,1.83-6.76,24.98.57,45.4-57.67-4.25-153.62-6.88-195.46,36.1h504.09V0H50.09Zm227.61,454.35c-13.02-7.94-26.81-40.1-.62-27.29-4.19,9.63-1,18.78,2.61,29.35-.68-.68-1.34-1.37-1.99-2.05Zm-61.12,32.45c-12.05-.33-11.32,11.65-6.93,19.57-36.72-8.03-16.4-86.35,7.09-19.57-.06,0-.1,0-.16,0Zm20.43,2.02c-17.78,4.49-16.9-12.21-12.7-23.92,10.5,6.9,16.98,10.63,17.83,24.45-1.81-.27-3.52-.45-5.13-.52Zm21.73,5.38c-5.1-2.21-10.42-3.81-15.59-4.69-1-5.69-2.4-10.88-4.04-15.25,7.97,4.54,12.02,14.52,19.93,20.08-.1-.05-.2-.09-.31-.14Zm16.41,9.99c-8.8-7.53-22.11-10.26-19.05-24.64,6.07,9.81,14.5,16.65,23.18,26.83-1.39-.69-2.77-1.42-4.12-2.19Zm73.81-82.65c12.69-24.61,23.13-11.67,4.35,6.15-1.37-2.06-2.82-4.13-4.35-6.15Zm-16.68-13.54c.01-.46.03-.92.04-1.39,2.41,2.2,4.8,4.56,7.14,7.06-2.7,3.1-5.52,6.01-8.42,8.7.67-4.77,1.14-9.56,1.24-14.38Zm-39.13-22.92c1.57.27,3.13.64,4.72,1.07-2.21,4.81-3.64,10.82-4.16,15.48-.59-4.64-1.32-9.66-2.07-14.26l.19.1c.44-.79.86-1.6,1.31-2.4Zm-1.93-.3c.22.03.45.07.68.1-.17.31-.33.63-.51.95-.06-.35-.12-.7-.18-1.04h0Zm-14.38,31.26c-1.19-1.99-2.5-4.18-3.73-6.12l.15.02c1.26-6.31.13-14.24,1.93-20.05-.91,3.44.35,8.28,2.02,11.93-1.08,4.78-.61,11.68.83,16.3l-1.19-2.07Zm9.7,4.35c-2.18.43-4.12,1.15-5.85,2.43-3.65-4.52.3-6.29-.04-14.2,2.28,3.94,4.83,7.75,7.44,11.54-.53.06-1.05.14-1.55.23Zm4.19-.36c-29.94-31.22,3.15-56.77,3.2-5.91-11-22.59-14.02-1.49.12,6.11-1.15-.13-2.27-.2-3.32-.2Zm34.79,13.34c-.4-1.22-1.77-3.24-2.88-1.81-8.78-5.33-17.94-9.62-26.93-11.1-3.37-14.43.18-17.81,7.81-32.36,14.03,6.58,33.58,14.19,26.95,32.79.7-3.46-4.69-22.26-7.16-15.62,1.94,10.32,9.44,19.02,4.41,29.57-.74-.51-1.47-.99-2.2-1.47Zm15.48,11.59c-16.09-9.92-10.01-10.89-.7-23.11-.26-6.8-10.02,7.52-11.1,10.12.66-2.78,1.24-5.83,1.68-8.65l.09.1c3.1-2.84,6.1-5.91,8.99-9.19,11.88,8.27,1.33,19.02,1.21,30.88-.06-.05-.12-.1-.17-.15Zm1.49,1.29c.84-7.78,2.68-15.54,5.46-22.39,8.25,7.1-3.01,14.61-5.34,22.49-.04-.03-.08-.07-.12-.1Zm41.55-7.08c-18.55,11.88-23.7,38.62-39.94,49.99,6.32-27.22,23.7-51.69,47.31-66.62,5.8,5.45-3,12.54-7.37,16.63Zm40.81-301.41c-8.86,50.52-48.23-15.23-65.76-26.44-26-10.32-18.87-29.69-4.45-45.29,4.46,10.04,20.41,10.51,25.47.75,3.14,1.06,6.95.9,9.97-.38,3.58,8.15,15.67,10.77,22.32,4.68,3.12,4.39,9.16,6.84,14.69,5.59,1.69,20.28-.27,40.78-2.23,61.08Z"/>
      <path class="cls-2" d="m263.44,126.56c2.71.02,2.68-4.23-.03-4.17-2.71-.02-2.68,4.23.03,4.17Z"/>
      <path class="cls-2" d="m263.56,143.99c4.64.04,4.59-7.26-.05-7.15-4.64-.04-4.59,7.26.05,7.15Z"/>
      <path class="cls-2" d="m263.78,174.7c4,.03,3.95-6.25-.04-6.16-4-.03-3.95,6.25.04,6.16Z"/>
      <path class="cls-2" d="m263.68,160.69c3.35.03,3.32-5.24-.04-5.17-3.35-.03-3.31,5.24.04,5.17Z"/>
      <path class="cls-2" d="m265.93,184.37c.02-2.71-4.23-2.68-4.17.03-.02,2.71,4.23,2.68,4.17-.03Z"/>
      <path class="cls-2" d="m264.66,299.52c-4.64-.04-4.59,7.26.05,7.15,4.64.04,4.59-7.26-.05-7.15Z"/>
      <path class="cls-2" d="m261.4,274.15c-.03,4,6.25,3.95,6.16-.04.03-4-6.25-3.95-6.16.04Z"/>
      <path class="cls-2" d="m264.57,286.55c-3.35-.03-3.32,5.24.04,5.17,3.35.03,3.31-5.24-.04-5.17Z"/>
      <path class="cls-2" d="m266.46,259.11c.02-2.71-4.23-2.68-4.17.03-.02,2.71,4.23,2.68,4.17-.03Z"/>
      <path class="cls-2" d="m264.24,239.6c-4.64-.04-4.59,7.26.05,7.15,4.64.04,4.59-7.26-.05-7.15Z"/>
      <path class="cls-2" d="m264.02,208.89c-4-.03-3.95,6.25.04,6.16,4,.03,3.95-6.25-.04-6.16Z"/>
      <path class="cls-2" d="m264.16,228.07c3.35.03,3.32-5.24-.04-5.17-3.35-.03-3.31,5.24.04,5.17Z"/>
      <path class="cls-2" d="m263.97,201.29c2.71.02,2.68-4.23-.03-4.17-2.71-.02-2.68,4.23.03,4.17Z"/>
      <path class="cls-2" d="m84.61,49.58c5.01-.29,4.59-8.01-.41-7.76-5.08.11-4.64,8.2.41,7.76Z"/>
      <path class="cls-2" d="m85.65,59.11c-3.4.39-2.69,5.73.69,5.22,3.39-.41,2.69-5.71-.69-5.22Z"/>
      <path class="cls-2" d="m148.81,194.03c5.37,2.64,9.08-5.75,3.87-8.16-5.17-2.52-9.29,5.68-3.87,8.16Z"/>
      <path class="cls-2" d="m122.16,171.19c4.88.43,5.65-7.39.7-7.74-5.14-.65-5.79,7.37-.7,7.74Z"/>
      <path class="cls-2" d="m133.86,183.09c3.36,2.78,7.3-2.56,4.07-5.09-3.21-2.59-7.52,2.46-4.07,5.09Z"/>
      <path class="cls-2" d="m112.94,154.05c2.88-1.75.25-6.24-2.68-4.53-3.02,1.64-.23,6.42,2.68,4.53Z"/>
      <path class="cls-2" d="m98.48,135.49c2.13,5.5,10.61,1.94,8.35-3.42-2.1-5.35-10.69-2.07-8.35,3.42Z"/>
      <path class="cls-2" d="m87.74,96.86c.97,5,8.71,3.31,7.61-1.57-.93-4.92-8.7-3.39-7.61,1.57Z"/>
      <path class="cls-2" d="m94.67,109.51c-4.14,1-2.33,7.55,1.73,6.29,4.05-1.13,2.33-7.39-1.73-6.29Z"/>
      <path class="cls-2" d="m86.06,80.64c.5,3.39,5.8,2.52,5.2-.84-.48-3.37-5.78-2.54-5.2.84Z"/>
      <path class="cls-2" d="m166.02,201.94c4.74.44,5.57-7.12.64-7.44-4.9-.53-5.39,7.06-.64,7.44Z"/>
      <path class="cls-2" d="m193.52,209.82c3.6,2.04,6.8-3.68,3.08-5.65-3.66-2.09-6.72,3.7-3.08,5.65Z"/>
      <path class="cls-2" d="m179.87,203.53c3.3,1.03,4.96-4.21,1.54-5.17-3.38-1.07-4.86,4.22-1.54,5.17Z"/>
      <path class="cls-2" d="m209.22,215.06c2.88.4,3.18-4.02.45-4.33-2.69-.24-3.4,4.11-.45,4.33Z"/>
      <path class="cls-2" d="m224.17,211.79c5.09.93,6.39-6.98,1.12-7.38-4.49-.68-5.42,6.54-1.12,7.38Z"/>
      <path class="cls-2" d="m240.16,183.51c4.01,1.32,5.84-5.23,1.73-6.19-3.99-1.06-5.69,5.02-1.73,6.19Z"/>
      <path class="cls-2" d="m235.04,196.07c3.17,1.76,5.64-3.54,2.34-4.86-3.17-1.37-5.35,3.28-2.34,4.86Z"/>
      <path class="cls-2" d="m243.7,169.59c2.74.67,3.73-3.71.95-4.25-2.75-.62-3.72,3.67-.95,4.25Z"/>
      <path class="cls-2" d="m248.67,142.28c4.16.66,4.99-5.94.83-6.38-4.12-.56-4.93,5.86-.83,6.38Z"/>
      <path class="cls-2" d="m250.4,127.76c3.49.39,4.02-5.14.49-5.37-3.45-.33-3.97,5.08-.49,5.37Z"/>
      <path class="cls-2" d="m246.74,154.42c2.77.54,3.54-3.88.74-4.29-2.78-.49-3.53,3.84-.74,4.29Z"/>
    </g>
  </g>
</svg>