<svg width="487" height="494" viewBox="0 0 487 494" fill="none" xmlns="http://www.w3.org/2000/svg">
<path d="M315.781 285.424C318.042 277.724 319.745 271.581 320.943 266.648C322.437 269.114 325.917 274.812 332.576 285.318C342.269 300.601 357.514 302.72 388.81 293.17C391.663 292.3 394.636 291.188 397.689 289.831C426.243 277.138 461.902 243.478 480.866 192.887C500.712 139.931 462.563 75.3346 452.898 65.4821C449.169 61.6964 443.32 58.8529 436.531 55.5551C428.922 51.863 420.32 47.6832 412.899 41.1761C398.365 28.4242 344.972 12.898 324.768 13.6473C305.481 14.3688 283.14 24.7166 252.37 47.2133C249.75 49.1178 247.449 50.9749 245.416 52.7511C239.932 40.5848 204.432 3.46865 174.678 0.933325C153.241 -0.879443 123.436 4.82087 116.734 9.2222C113.411 11.4202 111.811 14.9384 109.961 19.0037C107.982 23.3733 105.729 28.3198 100.74 32.7376C91.2059 41.1669 85.3511 59.3216 80.4335 77.6667C76.26 93.2533 94.5069 119.642 98.6516 125.386C97.4897 125.713 96.3401 126.11 95.2169 126.609C94.8689 126.764 94.5209 126.918 94.2027 127.098C77.5716 135.458 42.9684 152.869 27.3233 171.885C13.581 188.577 11.402 213.595 9.95223 230.152C9.78438 232.161 9.61471 234.038 9.43619 235.767C9.04418 239.659 7.71534 244.043 6.16882 249.13C1.66271 264.011 -4.51102 284.432 7.36918 312.949C28.6796 364.13 63.4188 393.524 110.647 400.296C115.261 400.958 119.62 401.6 123.732 402.199C130.177 403.147 136.053 404.005 141.439 404.741L140.825 404.938C142.156 409.126 148.646 418.74 154.911 428.017C157.223 431.428 159.461 434.757 161.331 437.643C163.338 440.753 166.221 446.641 169.541 453.472C177.604 469.992 187.617 490.557 195.437 492.847C200.968 494.466 210.878 492.508 220.496 488.232C230.779 483.662 240.722 476.454 244.695 468.087C246.527 464.238 249.607 459.361 253.201 453.723C264.856 435.361 280.815 410.231 276.083 385.99C269.97 354.72 269.286 350.112 270.919 339.467C272.325 330.269 273.402 325.277 273.671 324.133C278.396 323 283.031 321.622 287.443 319.699C288.653 320.375 296.072 324.664 300.962 329.185L302.033 330.188C309.626 337.339 332.725 359.087 355.177 359.689C358.94 359.8 362.28 359.984 365.512 360.178C382.219 361.154 393.26 361.784 423.527 346.851C449.761 333.881 459 334.592 463.434 334.935C464.886 335.048 465.983 335.129 467.011 334.672C467.185 334.595 467.359 334.517 467.512 334.392C470.841 332.249 483.216 320.622 480.782 314.421C480.461 313.615 480.157 312.632 479.798 311.483C477.079 302.81 471.441 284.757 436.797 262.224L435.848 263.67C469.965 285.868 475.481 303.52 478.131 311.996C478.505 313.177 478.823 314.192 479.149 315.052C480.986 319.698 470.459 330.409 466.555 332.921C465.877 333.356 465.142 333.322 463.528 333.186C458.939 332.836 449.384 332.095 422.714 345.278C392.85 360.051 382.004 359.391 365.567 358.428C362.32 358.24 358.972 358.04 355.178 357.944C340.723 357.56 323.233 347.791 303.168 328.906L302.097 327.903C297.841 323.953 291.904 320.315 289.336 318.801C300.698 313.333 310.354 303.901 315.789 285.44L315.781 285.424ZM253.369 48.6089C283.858 26.3319 305.884 16.0861 324.822 15.3874C346.439 14.5787 398.429 30.7853 411.755 42.4811C419.339 49.1431 428.063 53.3828 435.763 57.1101C442.402 60.3234 448.129 63.107 451.65 66.6816C457.157 72.2942 499.935 137.033 479.227 192.269C458.448 247.726 417.525 282.587 388.28 291.509C357.903 300.783 343.193 298.844 334.021 284.391C324.64 269.595 321.552 264.31 321.531 264.263L321.5 264.277C323.673 254.719 323.652 250.366 321.875 248.33C320.519 246.771 318.32 246.895 316.782 247.142C313.215 247.685 311.712 252.146 310.135 256.867C308.067 263.04 305.929 269.396 299.307 267.883C291.988 266.205 287.73 263.83 287.019 261.036C286.525 259.074 287.778 256.735 290.764 254.118C291.894 253.122 293.384 252.042 295.113 250.819C305.527 243.345 322.942 230.824 304.56 202.087C289.19 178.08 272.874 160.298 256.039 149.232C253.577 147.614 250.956 145.896 248.306 144.324L248.463 144.293C247.899 142.002 245.994 138.866 243.567 134.899C238.175 126.05 230.789 113.951 231.586 100.529C231.806 96.8469 231.773 93.4477 231.727 90.1489C231.554 75.9066 231.424 64.6607 253.385 48.6018L253.369 48.6089ZM82.1109 78.1159C86.9548 60.0312 92.7043 42.151 101.899 34.0242C107.162 29.3707 109.486 24.2412 111.549 19.7203C113.295 15.8908 114.8 12.5854 117.7 10.6705C124.171 6.3905 153.418 0.881752 174.523 2.67153C204.153 5.18569 239.625 42.7505 244.05 53.984C229.73 67.1584 229.846 77.5194 229.997 90.1782C230.029 93.4454 230.071 96.8216 229.861 100.442C229.04 114.406 236.887 127.286 242.1 135.817C243.833 138.65 245.378 141.188 246.228 143.143C239.784 139.559 233.526 137.371 229.785 140.59C227.978 142.151 227.275 144.873 227.812 148.256C228.858 154.828 234.838 163.891 245.454 168.636L241.579 177.565C241.103 178.668 240.628 179.771 240.159 180.89C237.767 186.505 234.794 193.498 232.879 193.666C232.459 193.701 232.054 193.217 231.771 192.793C230.893 191.457 229.901 189.224 228.769 186.636C225.645 179.565 221.77 170.762 215.588 169.129C207.397 166.985 190.067 183.318 185.622 189.428C184.957 188.358 184.019 186.803 182.842 184.879C174.768 171.531 157.948 143.75 150.764 139.736L149.683 139.136C140.565 134.009 118.027 121.325 100.476 124.973C97.6141 121.049 78.0199 93.4193 82.1091 78.1546L82.1109 78.1159ZM123.972 400.481C119.86 399.881 115.501 399.239 110.887 398.578C64.3059 391.896 30.0082 362.856 8.9652 312.277C-2.66158 284.331 3.40332 264.262 7.84449 249.618C9.41031 244.446 10.7655 239.994 11.1732 235.924C11.3518 234.195 11.5214 232.318 11.6822 230.293C13.1146 213.952 15.2709 189.267 28.6617 172.978C44.0696 154.238 78.4654 136.957 94.9858 128.646C95.3022 128.506 95.5957 128.356 95.9121 128.216C113.155 120.551 139.934 135.617 148.848 140.626L149.93 141.226C156.712 145.02 174.002 173.56 181.376 185.758C183.079 188.567 184.298 190.585 184.893 191.497L185.167 191.773C185.424 191.925 210.231 206.901 215.68 217.584C219.882 225.844 221.517 239.323 218.576 241.616C217.58 242.4 215.969 241.334 214.775 240.309C211.85 237.778 208.53 232.824 205.022 227.575C197.272 215.98 188.492 202.832 177.35 203.764C172.199 204.195 168.472 206.212 166.275 209.749C161.528 217.397 165.262 229.848 167.92 236.594C168.832 238.901 169.908 242.387 171.169 246.416C177.394 266.389 188.955 303.564 211.368 297.3C225.891 293.234 234.195 286.47 239.16 282.423C240.817 281.08 242.885 279.383 243.365 279.568C243.365 279.568 243.654 279.705 243.876 280.972C245.252 288.8 243.492 303.124 228.155 307.192C219.58 309.467 215.437 311.441 214.315 313.818C213.579 315.359 214.214 316.745 214.772 317.958L214.92 318.29C215.666 319.969 220.18 322.666 226.906 324.797L226.584 324.883C233.71 352.422 232.077 364.774 207.989 388.492C186.439 409.697 171.953 407.583 123.993 400.528L123.972 400.481ZM269.165 339.185C267.487 350.115 268.177 354.778 274.332 386.313C278.947 409.866 263.189 434.68 251.701 452.778C248.089 458.461 244.969 463.376 243.086 467.323C235.432 483.433 205.525 493.977 195.877 491.153C188.8 489.083 178.544 468.057 171.049 452.688C167.692 445.816 164.804 439.874 162.739 436.676C160.868 433.79 158.631 430.461 156.312 427.034C150.614 418.605 144.211 409.104 142.618 404.88C164.749 407.827 178.538 408.373 190.861 402.896C197.031 400.153 202.85 395.897 209.16 389.679C233.621 365.605 235.502 352.915 228.422 325.224C236.854 327.658 248.262 329.112 259.989 326.896L261.021 326.702C264.586 326.028 268.167 325.347 271.73 324.54C271.298 326.553 270.346 331.358 269.142 339.176L269.165 339.185ZM260.733 324.991L259.701 325.184C237.733 329.335 217.616 320.051 216.497 317.533L216.349 317.2C215.828 316.028 215.497 315.284 215.889 314.503C216.728 312.726 220.882 310.861 228.593 308.817C245.163 304.411 246.951 288.443 245.581 280.631C245.396 279.575 245.042 278.31 243.975 277.912C242.564 277.382 240.963 278.682 238.074 281.047C233.206 285.013 225.071 291.645 210.901 295.61C190.128 301.43 178.878 265.294 172.828 245.887C171.569 241.819 170.47 238.325 169.546 235.947C165.225 224.99 164.577 215.776 167.761 210.663C169.649 207.623 172.929 205.881 177.512 205.494C187.635 204.655 196.48 217.906 203.599 228.549C207.172 233.902 210.55 238.944 213.654 241.623C216.698 244.253 218.586 243.812 219.639 242.984C223.584 239.883 221.586 225.371 217.227 216.801C212.034 206.611 191.111 193.38 186.811 190.739C190.641 185.035 208.269 168.987 215.156 170.8C220.542 172.218 224.382 180.943 227.196 187.316C228.378 189.977 229.392 192.257 230.342 193.712C231.111 194.888 232.024 195.45 233.043 195.357C233.316 195.33 233.59 195.265 233.875 195.139C236.327 194.049 238.542 189.101 241.757 181.545C242.217 180.449 242.693 179.346 243.169 178.243L247.05 169.33C273.534 180.45 289.479 191.133 294.419 201.095C301.056 214.493 303.848 220.687 302.647 223.781L304.27 224.407C305.718 220.633 303.143 214.798 295.973 200.328C290.729 189.724 274.686 178.951 246.935 167.409C236.404 163.024 230.526 154.276 229.53 147.986C229.094 145.259 229.605 143.04 230.92 141.906C235.621 137.863 246.86 145.29 255.097 150.694C271.721 161.626 287.883 179.23 303.122 203.03C320.621 230.377 304.687 241.84 294.13 249.416C292.36 250.677 290.838 251.771 289.643 252.833C286.132 255.93 284.692 258.827 285.363 261.487C286.259 264.996 290.826 267.726 298.935 269.603C307.083 271.481 309.704 263.697 311.799 257.456C313.205 253.246 314.539 249.258 317.067 248.893C318.894 248.612 319.97 248.816 320.582 249.512C323.052 252.34 319.948 265.175 314.136 284.961C304.81 316.702 282.419 320.927 260.747 325.022L260.733 324.991Z" fill="#EBD4C4"/>
<path d="M263.724 229.855C263.819 229.813 263.912 229.809 264.007 229.767C264.861 229.387 264.982 227.74 262.987 210.382L262.585 206.919C261.75 199.457 260.955 191.276 260.955 191.276L259.227 191.437C259.227 191.437 260.029 199.634 260.848 207.103L261.234 210.573C261.718 214.815 262.516 221.724 262.757 225.676C260.673 220.988 257.218 213.344 253.882 206.52C249.958 198.459 252.836 192.362 256.713 185.783L255.226 184.908C251.089 191.925 248.027 198.464 252.328 207.287C256.325 215.468 260.485 224.827 262.259 228.818C262.4 229.135 262.815 230.069 263.678 229.837L263.724 229.855Z" fill="#EBD4C4"/>
<path d="M273.243 208.478L271.566 208.882C273.616 217.416 265.593 231.376 263.96 234.093L265.439 234.991C267.81 231.035 275.39 217.443 273.25 208.494L273.243 208.478Z" fill="#EBD4C4"/>
<path d="M278.106 217.374C280.544 205.214 279.623 200.54 279.577 200.352L277.879 200.709C277.879 200.709 278.756 205.326 276.401 217.032C273.954 229.215 268.676 236.947 267.13 238.241L268.248 239.565C269.972 238.116 275.531 230.163 278.106 217.374Z" fill="#EBD4C4"/>
<path d="M283.956 226.57C285.539 220.499 285.686 214.479 285.698 214.208L283.971 214.16C283.971 214.16 283.83 220.235 282.295 226.114C280.761 231.955 276.251 238.815 272.019 241.739L272.993 243.164C277.521 240.052 282.345 232.749 283.949 226.554L283.956 226.57Z" fill="#EBD4C4"/>
<path d="M203.884 260.816C208.045 262.419 222.786 258.673 225.52 257.875L225.028 256.216C219.428 257.852 207.441 260.335 204.492 259.199C203.052 258.645 200.819 258.139 198.463 257.612C195.723 256.99 191.962 256.158 191.312 255.461L190.034 256.636C190.987 257.673 193.709 258.341 198.084 259.317C200.271 259.805 202.543 260.312 203.869 260.823L203.884 260.816Z" fill="#EBD4C4"/>
<path d="M223.417 264.822C220.142 266.448 216.766 268.101 213.318 268.913L212.716 269.048C207.38 270.3 204.153 271.052 198.547 267.987L197.726 269.509C203.908 272.887 207.77 271.986 213.121 270.727L213.724 270.591C215.816 270.098 217.906 269.301 219.899 268.415C221.386 267.754 222.829 267.037 224.2 266.371C226.174 265.398 228.021 264.483 229.7 263.869L229.106 262.236C227.349 262.885 225.454 263.822 223.448 264.808L223.417 264.822Z" fill="#EBD4C4"/>
<path d="M258.875 229.09C257.327 227.653 255.781 226.69 253.99 226.538L254.12 226.405C254.12 226.405 252.461 224.847 251.646 222.289C251.327 221.273 250.562 220.532 249.44 220.14C246.801 219.189 242.577 220.213 238.664 222.749C234.696 225.328 234.435 227.682 234.302 229.088C234.29 229.188 234.278 229.288 234.272 229.404C232.729 229.427 231.249 230.104 229.669 231.792C226.916 234.761 222.794 241.088 223.461 245.4C223.508 245.721 223.603 246.02 223.698 246.319C222.385 245.879 220.936 245.688 220.296 245.612L219.937 245.658C215.038 247.21 201.618 236.58 196.232 230.515C191.178 224.815 190.243 224.586 184.511 224.478L184.487 226.215C189.762 226.317 190.196 226.313 194.947 231.674C199.58 236.898 213.821 249.116 220.286 247.38C222.607 247.657 224.545 248.351 224.696 248.777C224.696 248.777 224.684 248.877 224.514 249.048C223.257 250.441 218.817 251.618 203.064 243.884C189.647 237.311 186.741 237.635 186.156 237.896L186.742 239.513C186.844 239.486 189.434 239.132 202.297 245.439C213.484 250.916 220.739 252.831 224.346 251.228C224.915 250.975 225.404 250.625 225.78 250.192C226.107 249.819 226.261 249.485 226.33 249.17L227.07 249.6C229.103 250.763 231.069 251.862 232.864 252.448C232.2 256.878 233.044 260.012 235.377 261.725C239.797 264.976 245.84 267.107 249.538 263.32C252.959 259.808 258.784 260.424 260.933 261.252C262.578 261.886 265.6 261.737 268.084 260.633C268.543 260.429 268.972 260.201 269.379 259.925C271.257 258.692 272.312 256.933 272.399 254.827C272.638 249.695 268.986 244.718 268.083 243.583C268.099 239.1 261.381 231.446 258.836 229.088L258.875 229.09ZM257.694 230.354C260.909 233.325 266.707 240.572 266.383 243.808C266.135 246.232 263.003 249.672 260.685 250.039C259.732 250.197 259.083 249.803 258.632 248.789C257.696 246.683 257.928 245.328 258.178 243.889C258.462 242.227 258.757 240.503 257.059 238.09C255.121 235.348 252.703 235.493 250.768 235.614C249.532 235.689 248.444 235.756 247.643 235.106C245.962 233.71 247.229 231.573 247.536 231.114C253.003 226.749 255.283 228.126 257.694 230.354ZM227.968 248.082L226.751 247.39C225.866 246.891 225.342 246.138 225.194 245.123C224.638 241.615 228.236 235.9 230.965 232.961C231.642 232.224 232.292 231.726 232.941 231.438C234.902 230.566 236.949 231.591 240.454 233.636C240.267 235.9 239.46 244.699 237.785 249.028C237.381 250.08 236.817 250.729 236.116 250.984C234.249 251.643 231.075 249.83 227.999 248.067L227.968 248.082ZM270.697 254.749C270.628 256.297 269.874 257.543 268.452 258.478C266.192 259.957 262.92 260.14 261.579 259.637C258.996 258.642 252.376 257.943 248.32 262.116C244.565 265.986 237.768 261.307 236.424 260.33C234.653 259.031 234.046 256.513 234.575 252.845C235.308 252.917 236.008 252.872 236.646 252.645C236.741 252.603 236.82 252.568 236.915 252.525C237.991 252.047 238.801 251.099 239.354 249.658C241.356 244.444 242.142 233.683 242.17 233.234L242.217 232.701L241.756 232.432C239.619 231.162 237.754 230.076 235.976 229.614C235.997 229.491 236.002 229.375 236.015 229.275C236.141 228.024 236.317 226.333 239.599 224.211C243.527 221.668 247.146 221.159 248.847 221.788C249.457 222.01 249.837 222.353 249.994 222.834C250.536 224.565 251.407 225.885 252.059 226.714C250.439 227.074 248.588 228.067 246.344 229.88L246.189 230.044C245.223 231.365 244.039 234.413 246.528 236.475C247.85 237.575 249.452 237.47 250.851 237.379C252.678 237.268 254.241 237.162 255.625 239.126C256.908 240.945 256.725 242.069 256.454 243.632C256.201 245.109 255.878 246.941 257.033 249.538C257.807 251.28 259.19 252.088 260.939 251.804C261.383 251.739 261.832 251.597 262.275 251.4C264.426 250.443 266.591 248.153 267.569 245.879C268.841 247.76 270.828 251.334 270.687 254.811L270.697 254.749Z" fill="#EBD4C4"/>
</svg>
