<?xml version="1.0" encoding="UTF-8"?>
<svg id="Layer_2" data-name="Layer 2" xmlns="http://www.w3.org/2000/svg" viewBox="0 0 72.93 95.5">
  <g id="Orkide_line" data-name="Orkide line" fill="#FEFEFE">
    <g>
      <path d="m0,35.35v3.23h6.7s.62-.01.62-.01c-.16,1.32-.58,4.64-.58,5.02,0,10.34,6.21,19.5,15.76,24.14l-11.22,22.07,3.57,1.81,3.71-7.29h17.1v11.17h4v-11.17h16.18l3.88,7.58,3.56-1.82-11.74-22.93c8.92-4.8,14.66-13.62,14.66-23.56,0-.41-.3-4.08-.37-5.02h2.73s4.38.01,4.38.01v-3.23H0Zm20.07,45.97l6.03-11.86-2.16-1.1c1.81.77,3.71,1.4,5.72,1.83l.68.14-.09.14c.83.15,2.79.27,5.39.3v10.55h-15.57Zm34.22,0h-14.64v-10.6c1.41-.06,2.46-.14,3.01-.24l-.08-.14.67-.14c1.61-.35,3.16-.81,4.64-1.38l6.4,12.5Zm8.67-37.73c0,13.28-11.89,24.09-26.49,24.09s-26.5-10.81-26.5-24.09c0-.38.43-3.7.59-5.02h52.02c.07.94.38,4.61.38,5.02Z"/>
      <path d="m56.52,55c3.47-4.9,3.64-10.12,3.43-12.77-.02-.3-.05-.57-.08-.8l-2.8.35c.02.14.03.29.04.45.21,2.18.18,6.81-2.89,11.14-2.68,3.77-6.27,5.36-8.17,5.97l.86,2.69c2.24-.72,6.46-2.59,9.61-7.03Z"/>
      <path d="m16.16,12.96c.11,1.36-.57,2.71-1.29,4.14-.71,1.42-1.45,2.88-1.45,4.49,0,3.43,5.42,6.7,6.5,7.32l1.49-2.6c-2.36-1.35-4.99-3.62-4.99-4.72,0-.9.55-1.99,1.13-3.14.84-1.66,1.78-3.54,1.6-5.74-.33-4.01-5.44-6.67-6.02-6.96l-1.34,2.68c1.08.55,4.21,2.55,4.38,4.53Z"/>
      <path d="m35.59,7.21c.11,1.36-.57,2.71-1.29,4.14-.71,1.42-1.45,2.88-1.45,4.49,0,3.43,5.42,6.7,6.5,7.32l1.49-2.6c-2.36-1.35-4.99-3.62-4.99-4.72,0-.9.55-1.99,1.13-3.14.84-1.66,1.78-3.54,1.6-5.74-.33-4.01-5.44-6.67-6.02-6.96l-1.34,2.68c1.08.55,4.21,2.55,4.38,4.53Z"/>
      <path d="m56.38,12.96c.11,1.36-.57,2.71-1.29,4.14-.71,1.42-1.45,2.88-1.45,4.49,0,3.43,5.42,6.7,6.5,7.32l1.49-2.6c-2.36-1.35-4.99-3.62-4.99-4.72,0-.9.55-1.99,1.13-3.14.84-1.66,1.78-3.54,1.6-5.74-.33-4.01-5.44-6.67-6.02-6.96l-1.34,2.68c1.08.55,4.21,2.55,4.38,4.53Z"/>
    </g>
  </g>
</svg>