<svg width="111" height="110" viewBox="0 0 111 110" fill="none" xmlns="http://www.w3.org/2000/svg">
<g clip-path="url(#clip0_576_184)">
<path fill-rule="evenodd" clip-rule="evenodd" d="M64.0957 17.6255H87.3595V65.1474H97.3727V105.78L106.827 105.78V109.626L4.11328 109.626V105.78H13.5707V65.1474H23.584V17.6255H46.8417C46.4671 16.9279 46.2547 16.1302 46.2547 15.283C46.2547 12.5438 48.4752 10.3232 51.2144 10.3232C53.0207 10.3232 54.6015 11.2889 55.4687 12.732C56.3359 11.2889 57.9167 10.3232 59.723 10.3232C62.4622 10.3232 64.6827 12.5438 64.6827 15.283C64.6827 16.1302 64.4703 16.9279 64.0957 17.6255ZM49.9647 21.4716H27.43V42.6006C31.3948 42.5293 34.4962 40.7307 36.6745 38.844C37.7825 37.8844 38.6263 36.9224 39.1902 36.2036C39.4712 35.8455 39.68 35.5512 39.8149 35.3526C39.8822 35.2534 39.9309 35.1784 39.9607 35.1316L39.9911 35.0832L39.9936 35.0792L41.5969 32.4053L43.2646 35.0371L43.2704 35.0462L43.3046 35.098C43.3373 35.147 43.3897 35.2244 43.4612 35.326C43.6044 35.5294 43.8232 35.8288 44.1127 36.192C44.694 36.9213 45.5486 37.8933 46.6361 38.8609C48.8412 40.8229 51.814 42.6028 55.2922 42.6028C58.4257 42.6028 61.5007 40.8355 63.9457 38.8152C65.138 37.83 66.1133 36.8402 66.7901 36.0965C67.1273 35.7258 67.3875 35.4195 67.5604 35.2097C67.6468 35.1049 67.7111 35.0245 67.7522 34.9724L67.7962 34.9163L67.8041 34.906L69.5301 32.6343L70.9856 35.082L70.9882 35.0865L71.0203 35.1379C71.0499 35.1848 71.0982 35.2598 71.165 35.3591C71.2987 35.5579 71.5057 35.8523 71.7842 36.2106C72.343 36.9295 73.1785 37.8914 74.2744 38.8506C76.453 40.7576 79.5548 42.5677 83.5134 42.6023V21.4716H60.9764L56.9342 26.2251C56.1661 27.1283 54.7716 27.1281 54.0038 26.2246L49.9647 21.4716ZM27.43 65.1474V46.4472C32.6138 46.3751 36.5746 44.0187 39.1926 41.7512C40.2 40.8786 41.0231 40.0075 41.6587 39.2598C42.2919 40.0007 43.104 40.8662 44.0796 41.7343C46.6266 44.0005 50.4789 46.4489 55.2922 46.4489C59.7769 46.4489 63.7235 43.9879 66.3956 41.78C67.5262 40.8457 68.4793 39.9146 69.2086 39.1441C69.8497 39.9153 70.6953 40.8291 71.7412 41.7446C74.3526 44.0304 78.319 46.4136 83.5134 46.4485V65.1474H27.43ZM93.5267 105.78L93.4413 89.245C93.3519 89.3293 93.2611 89.4138 93.1688 89.4983C90.7139 91.7459 86.9915 94.2312 82.4307 94.2312C77.8687 94.2312 74.1552 91.7448 71.7088 89.4956C70.7141 88.5811 69.8893 87.6701 69.2571 86.9058C68.5135 87.6896 67.536 88.6435 66.3781 89.5987C63.6977 91.8097 59.7388 94.2869 55.3079 94.231C50.8984 94.1753 47.0546 91.7092 44.4627 89.5112C43.4023 88.6119 42.5047 87.7175 41.8091 86.9682C41.2039 87.7188 40.4209 88.6007 39.473 89.4856C37.0375 91.7593 33.3157 94.2312 28.592 94.2312C24.4038 94.2312 20.8956 92.0688 18.445 89.9673C18.0521 89.6304 17.6804 89.2898 17.3313 88.953L17.4167 105.78H93.5267ZM17.4167 68.9934H23.584V68.9982H87.3595V68.9934H93.5267L93.4413 83.4745C93.3305 83.624 93.2008 83.7949 93.0529 83.9826C92.4749 84.7159 91.6314 85.6913 90.5717 86.6615C88.4084 88.6421 85.5841 90.3851 82.4307 90.3851C79.2787 90.3851 76.4644 88.6433 74.3118 86.6642C73.2571 85.6946 72.4184 84.7197 71.8441 83.9868C71.5581 83.6218 71.3406 83.3208 71.1977 83.1156L71.1327 83.0215C71.0935 82.9642 71.0627 82.9184 71.0407 82.8851L71.006 82.832L71.0012 82.8247L69.5301 80.4956L67.8522 82.6777L67.8422 82.6905L67.7968 82.7479C67.7545 82.8009 67.6884 82.8827 67.5999 82.989C67.4228 83.2018 67.157 83.5121 66.8134 83.8872C66.1239 84.6398 65.1335 85.6396 63.9307 86.6318C61.4565 88.6727 58.3939 90.4236 55.3565 90.3852C52.2977 90.3466 49.3165 88.5845 46.9503 86.5779C45.797 85.5998 44.8559 84.6198 44.2037 83.8841C43.8787 83.5175 43.6284 83.2147 43.4622 83.0076C43.3791 82.9042 43.3173 82.8248 43.2779 82.7736L43.2359 82.7184L43.2284 82.7085L41.5079 80.3811L40.0309 82.866L40.0256 82.8747L39.9938 82.926C39.9633 82.9747 39.9143 83.0517 39.8472 83.1529C39.713 83.3555 39.5075 83.6538 39.2347 84.0159C38.6869 84.743 37.8801 85.7111 36.8485 86.6742C34.7548 88.6288 31.9315 90.3851 28.592 90.3851C25.7341 90.3851 23.0963 88.8894 20.9486 87.0477C19.2289 85.573 17.974 84.0075 17.3313 83.162L17.4167 68.9934Z" fill="#FEFEFE"/>
</g>
<defs>
<clipPath id="clip0_576_184">
<rect width="109.372" height="109.372" fill="white" transform="translate(0.783203 0.253906)"/>
</clipPath>
</defs>
</svg>
