<svg width="111" height="110" viewBox="0 0 111 110" fill="none" xmlns="http://www.w3.org/2000/svg">
<g clip-path="url(#clip0_576_185)">
<path d="M57.6244 41.4111V25H53.5535V41.4111H57.6244Z" fill="#FEFEFE"/>
<path d="M67.4935 44.0051L76.3638 30.4644L72.9585 28.2336L64.0882 41.7744L67.4935 44.0051Z" fill="#FEFEFE"/>
<path d="M47.2192 41.9144L39.8264 28.3736L36.2534 30.3244L43.6461 43.8651L47.2192 41.9144Z" fill="#FEFEFE"/>
<path fill-rule="evenodd" clip-rule="evenodd" d="M49.0479 62.1185C52.1321 60.4454 51.7963 55.9148 48.4991 54.7147L13.8368 42.0987C10.5396 40.8986 7.37012 44.1534 8.65739 47.4175L18.8643 73.2995C19.0308 73.7218 19.2591 74.0995 19.5341 74.4269L9.4018 102.265L2.66284 99.8124L1.27051 103.638L18.5738 109.936L19.9662 106.11L13.2272 103.657L23.3605 75.8164C23.7797 75.742 24.1952 75.5998 24.5924 75.3844L49.0479 62.1185ZM22.6513 71.806L40.3653 62.197C39.2053 61.9518 37.9438 61.8655 36.6047 62.037C34.9295 62.2516 33.4586 62.5614 32.0922 62.8693C31.8708 62.9192 31.6492 62.9698 31.4281 63.0203C30.3212 63.2729 29.2233 63.5235 28.1969 63.6772C26.936 63.866 25.6368 63.9353 24.3019 63.6743C22.9441 63.409 21.6606 62.8243 20.3931 61.8553C20.2652 61.7575 20.1657 61.6906 20.0964 61.6512C19.3532 61.229 18.7612 60.9502 18.2989 60.7693L22.6513 71.806ZM12.4445 45.9241L16.5827 56.4176C16.8658 56.3858 17.1515 56.3822 17.4356 56.4013C18.7561 56.4898 20.2988 57.0843 22.1072 58.1116C22.4001 58.2779 22.6626 58.466 22.8656 58.6212C23.6836 59.2466 24.3969 59.545 25.0828 59.679C25.7914 59.8175 26.5825 59.8026 27.5941 59.6512C28.4538 59.5225 29.3684 59.3141 30.4733 59.0623L31.1973 58.898C32.6027 58.5813 34.2209 58.2382 36.0875 57.9991C39.3934 57.5756 42.2971 58.3047 44.5612 59.305C44.7663 59.3956 44.9608 59.4957 45.1447 59.6044L47.1068 58.5401L12.4445 45.9241Z" fill="#FEFEFE"/>
<path fill-rule="evenodd" clip-rule="evenodd" d="M62.2168 62.1185C59.1326 60.4454 59.4684 55.9148 62.7656 54.7147L97.4279 42.0987C100.725 40.8986 103.895 44.1534 102.607 47.4175L92.4004 73.2995C92.2339 73.7218 92.0056 74.0995 91.7306 74.4269L101.863 102.265L108.602 99.8124L109.994 103.638L92.6909 109.936L91.2985 106.11L98.0375 103.657L87.9042 75.8164C87.485 75.742 87.0695 75.5998 86.6723 75.3844L62.2168 62.1185ZM88.6134 71.806L70.8994 62.197C72.0594 61.9518 73.3209 61.8655 74.66 62.037C76.3352 62.2516 77.8061 62.5614 79.1725 62.8693C79.3938 62.9192 79.6152 62.9697 79.8362 63.0202C80.943 63.2728 82.0414 63.5235 83.0678 63.6772C84.3287 63.866 85.6279 63.9353 86.9628 63.6743C88.3206 63.409 89.6041 62.8243 90.8716 61.8553C90.9995 61.7575 91.099 61.6906 91.1683 61.6512C91.9115 61.229 92.5035 60.9502 92.9658 60.7693L88.6134 71.806ZM98.8202 45.9241L94.682 56.4176C94.3989 56.3858 94.1132 56.3822 93.8291 56.4013C92.5086 56.4898 90.9659 57.0843 89.1575 58.1116C88.8646 58.2779 88.6021 58.466 88.3991 58.6212C87.5811 59.2466 86.8678 59.545 86.1819 59.679C85.4733 59.8175 84.6822 59.8026 83.6706 59.6512C82.8109 59.5225 81.8964 59.3141 80.7915 59.0624L80.0674 58.898C78.662 58.5813 77.0438 58.2382 75.1772 57.9991C71.8713 57.5756 68.9676 58.3047 66.7035 59.305C66.4984 59.3956 66.3039 59.4957 66.12 59.6044L64.1579 58.5401L98.8202 45.9241Z" fill="#FEFEFE"/>
</g>
<defs>
<clipPath id="clip0_576_185">
<rect width="109.372" height="109.372" fill="white" transform="translate(0.946289 0.253906)"/>
</clipPath>
</defs>
</svg>
