<?xml version="1.0" encoding="UTF-8"?>
<svg id="Layer_2" data-name="Layer 2" xmlns="http://www.w3.org/2000/svg" viewBox="0 0 107.87 89.95">
  <g id="Icons" fill="#FEFEFE">
    <g id="Drinks">
      <rect x="42.24" y="1.55" width="4" height="15.88" transform="translate(.04 19.15) rotate(-24.44)"/>
      <rect x="43.24" y="2.55" width="2" height="13.88" transform="translate(.04 19.16) rotate(-24.46)"/>
      <rect x="56.01" y="7.49" width="15.88" height="4" transform="translate(28.84 63.77) rotate(-65.55)"/>
      <rect x="57.01" y="8.49" width="13.88" height="2" transform="translate(28.85 63.78) rotate(-65.56)"/>
      <rect x="46.43" y="5.99" width="15.88" height="4" transform="translate(44.94 62.13) rotate(-88.47)"/>
      <rect x="47.43" y="6.99" width="13.88" height="2" transform="translate(44.95 62.13) rotate(-88.48)"/>
      <path d="m51.45,36.35c.62-.49.9-1.21.73-1.87l-.35-1.21L13.59,23.55c-.24-.07-.49-.1-.74-.1-.67,0-1.32.22-1.79.6-.61.48-.89,1.2-.73,1.88l7.56,31.7-7.54,25.2-8.98-2.45-1.37,3.78,21.28,5.79,1.36-3.78-7.69-2.09,7.6-25.37,28.9-22.36Zm-6.2-.63l-5.41,4.3c-.64-.09-1.17-.25-1.73-.43-1.25-.39-2.68-.84-5.26-.55-2.58.29-3.87,1.03-5.01,1.69-1.01.58-1.88,1.09-3.84,1.3-1.95.21-2.91-.08-4.03-.43-.37-.12-.76-.23-1.19-.34l-2.98-13.02,29.44,7.49Zm-25.69,8.88c.86.26,1.84.5,3.22.5.47,0,.98-.03,1.56-.09,2.58-.29,3.87-1.03,5.01-1.69,1.01-.58,1.88-1.09,3.84-1.3,1.77-.2,2.73.03,3.72.34l-15.11,12-2.23-9.76Z"/>
      <path d="m85.32,58.71l7.6,25.37-7.69,2.09,1.36,3.78,21.28-5.79-1.37-3.78-8.98,2.45-7.54-25.2,7.56-31.7c.16-.68-.12-1.4-.73-1.88-.47-.38-1.12-.6-1.79-.6-.25,0-.5.03-.74.1l-38.24,9.72-.35,1.21c-.17.66.11,1.38.73,1.87l28.9,22.36Zm6.74-30.48l-2.98,13.02c-.43.1-.82.22-1.19.34-1.11.35-2.07.65-4.03.43-1.95-.22-2.83-.72-3.84-1.3-1.14-.66-2.43-1.4-5.01-1.69-2.58-.29-4,.16-5.26.55-.57.18-1.1.34-1.73.43l-5.41-4.3,29.44-7.49Zm-5.98,26.13l-15.11-12c.99-.3,1.95-.53,3.72-.34,1.95.22,2.83.72,3.84,1.3,1.14.66,2.43,1.4,5.01,1.69.57.06,1.09.09,1.56.09,1.39,0,2.36-.24,3.22-.5l-2.23,9.76Z"/>
    </g>
  </g>
</svg>