<svg width="111" height="110" viewBox="0 0 111 110" fill="none" xmlns="http://www.w3.org/2000/svg">
<g clip-path="url(#clip0_576_182)">
<path d="M50.4951 29.6828C49.3461 26.8475 50.5243 24.2486 51.4857 22.9385L54.7874 25.3615C54.257 26.0843 53.8918 27.1604 54.2907 28.1447C54.5603 28.81 54.8625 29.2297 55.2888 29.7778L55.4028 29.9238C55.8326 30.4732 56.3894 31.1851 56.9093 32.2162C57.5939 33.5739 57.7402 34.9611 57.742 35.9646C57.7429 36.4766 57.706 36.917 57.671 37.2381C57.6562 37.3735 57.6411 37.493 57.6307 37.5751L57.626 37.6127C57.6187 37.6705 57.6165 37.6937 57.6165 37.6937C57.6165 37.6937 57.6236 37.6211 57.6234 37.5362L53.528 37.5506C53.5273 37.3654 53.5556 37.1542 53.5615 37.1098L53.5625 37.1026L53.5682 37.0568C53.5786 36.9746 53.589 36.8919 53.5997 36.7939C53.6245 36.5669 53.6472 36.2858 53.6466 35.9718C53.6455 35.3231 53.5449 34.6399 53.2525 34.0601C52.9197 33.4001 52.5888 32.9756 52.1572 32.422L52.056 32.292C51.558 31.6517 50.979 30.8769 50.4951 29.6828Z" fill="#FEFEFE"/>
<path d="M37.1335 27.3347C36.6302 28.8799 36.3244 31.717 38.3029 34.0504C39.1361 35.0331 39.9284 35.5878 40.6017 36.0401L40.7386 36.1319C41.3218 36.5227 41.7688 36.8224 42.2915 37.3451C42.7506 37.8043 43.0599 38.4217 43.2639 39.0374C43.3627 39.3355 43.4291 39.6096 43.4766 39.8329C43.4971 39.9293 43.513 40.0109 43.5289 40.0922L43.5378 40.1379L43.5392 40.1449C43.5474 40.1891 43.5867 40.3985 43.6452 40.5741L47.5305 39.2791C47.5547 39.3516 47.57 39.4165 47.5728 39.4287L47.5569 39.3509L47.5496 39.3137C47.5338 39.2324 47.5108 39.1142 47.4824 38.981C47.4152 38.665 47.3125 38.2353 47.1514 37.7492C46.8358 36.7967 46.2627 35.5249 45.1877 34.4496C44.3713 33.6329 43.6196 33.131 43.0395 32.7437L42.8856 32.6407C42.3092 32.2535 41.8908 31.9494 41.4266 31.4018C40.7397 30.5918 40.7499 29.4555 41.0276 28.603L37.1335 27.3347Z" fill="#FEFEFE"/>
<path d="M28.0983 83.0557C24.7124 87.2702 22.3594 93.0224 21.531 100.782L17.4588 100.347C18.3523 91.9773 20.9319 85.4369 24.9057 80.4907C28.8826 75.5407 34.146 72.3243 40.1759 70.4245L41.4066 74.3306C36.005 76.0325 31.4813 78.845 28.0983 83.0557Z" fill="#FEFEFE"/>
<path fill-rule="evenodd" clip-rule="evenodd" d="M63.0557 57.4572C64.3214 56.1499 65.076 54.5026 65.076 52.7125C65.076 48.4624 60.8225 45.0171 55.5755 45.0171C50.3285 45.0171 46.075 48.4624 46.075 52.7125C46.075 54.5026 46.8296 56.1499 48.0953 57.4572C25.4023 61.1282 8.02806 81.2334 7.89736 105.53H0.889648V109.626H110.263V105.53H103.254C103.123 81.2333 85.7488 61.1281 63.0557 57.4572ZM60.9806 52.7125C60.9806 53.9366 59.409 56.3124 55.5755 56.3124C51.7419 56.3124 50.1704 53.9366 50.1704 52.7125C50.1704 51.4883 51.7419 49.1125 55.5755 49.1125C59.409 49.1125 60.9806 51.4883 60.9806 52.7125ZM55.5756 60.9537C79.4567 60.9537 99.0139 80.7852 99.1584 105.53H11.9928C12.1373 80.7852 31.6946 60.9537 55.5756 60.9537Z" fill="#FEFEFE"/>
<path d="M70.6058 26.1053C69.0274 26.492 66.4552 27.7273 65.5149 30.6385C65.1189 31.8646 65.0651 32.8303 65.0355 33.6409L65.0296 33.8055C65.0048 34.5071 64.9858 35.045 64.817 35.7646C64.6687 36.3968 64.3071 36.9851 63.8913 37.483C63.6901 37.724 63.4921 37.925 63.3274 38.083C63.2563 38.1513 63.1952 38.2079 63.1345 38.2642L63.1005 38.2957L63.0952 38.3006C63.0622 38.3308 62.9048 38.4746 62.7864 38.617L65.9347 41.2362C65.8857 41.295 65.8386 41.3423 65.8297 41.3511C65.8297 41.3511 65.8522 41.3294 65.8876 41.2965L65.9153 41.2708C65.976 41.2145 66.0643 41.1326 66.1627 41.0383C66.3957 40.8147 66.7068 40.5008 67.035 40.1078C67.6782 39.3375 68.457 38.1802 68.8042 36.6999C69.0679 35.5756 69.0983 34.6724 69.1218 33.9752L69.1282 33.7901C69.1535 33.0962 69.1914 32.5804 69.412 31.8973C69.7384 30.8866 70.7095 30.2964 71.5803 30.0831L70.6058 26.1053Z" fill="#FEFEFE"/>
</g>
<defs>
<clipPath id="clip0_576_182">
<rect width="109.372" height="109.372" fill="white" transform="translate(0.891602 0.253906)"/>
</clipPath>
</defs>
</svg>
