<svg width="111" height="110" viewBox="0 0 111 110" fill="none" xmlns="http://www.w3.org/2000/svg">
<g clip-path="url(#clip0_576_183)">
<path d="M53.3279 0.355957V14.1184H57.4413V0.355957H53.3279Z" fill="#FEFEFE"/>
<path d="M38.5721 7.22304L47.1002 17.5997L50.2838 15.0063L41.7557 4.62972L38.5721 7.22304Z" fill="#FEFEFE"/>
<path d="M69.1381 4.67245L60.6099 15.0491L63.7935 17.6424L72.3216 7.26577L69.1381 4.67245Z" fill="#FEFEFE"/>
<path d="M33.3616 24.4672H45.1812V20.3719H33.3616V24.4672Z" fill="#FEFEFE"/>
<path d="M77.5321 20.4147H65.7125V24.5099H77.5321V20.4147Z" fill="#FEFEFE"/>
<path d="M42.4127 38.2589L49.0757 31.3773L46.1141 28.5352L39.4511 35.4168L42.4127 38.2589Z" fill="#FEFEFE"/>
<path d="M71.4426 35.4595L64.7796 28.5779L61.8181 31.4201L68.4811 38.3016L71.4426 35.4595Z" fill="#FEFEFE"/>
<path fill-rule="evenodd" clip-rule="evenodd" d="M56.6006 29.4428C56.1586 28.5534 54.8899 28.5534 54.448 29.4428L17.3598 104.073C17.002 104.793 17.4385 105.652 18.2319 105.782C18.9232 105.896 19.8212 106.04 20.8887 106.207C27.1863 107.189 39.3796 108.931 49.7897 109.465L49.8589 109.502L49.8811 109.513L49.8933 109.52L49.9185 109.472C51.8678 109.57 53.7533 109.626 55.5243 109.626C66.779 109.626 82.6553 107.378 90.1599 106.207C91.2273 106.04 92.1254 105.896 92.8167 105.782C93.6101 105.652 94.0465 104.793 93.6887 104.073L56.6006 29.4428ZM55.5243 105.531C54.0851 105.531 52.562 105.492 50.9845 105.423L50.8531 105.342C50.2245 104.953 49.3012 104.343 48.168 103.481C45.9015 101.758 42.7971 99.0319 39.5294 95.0602C36.2076 91.0229 34.1228 87.9353 32.8792 85.8839C32.4447 85.1671 32.1129 84.5767 31.8668 84.1164L40.7375 66.2665C41.3099 67.4433 42.0727 68.9184 43.0505 70.6317C45.6384 75.1663 49.7352 81.3743 55.7973 88.138C61.8639 94.9066 67.7448 99.7526 72.1212 102.913C72.7969 103.401 73.437 103.849 74.0365 104.258C67.7359 104.97 61.0185 105.531 55.5243 105.531ZM36.3471 97.6553C33.1678 93.791 31.0474 90.7238 29.6777 88.5214L22.8015 102.358C25.0378 102.699 27.8271 103.105 30.9155 103.511C34.8138 104.023 39.1409 104.529 43.4095 104.906C41.3096 103.104 38.8676 100.719 36.3471 97.6553ZM43.2009 61.7105C43.2009 61.7105 43.2011 61.7109 42.956 61.8022L49.5237 48.5865C49.6449 48.7705 49.7727 48.9614 49.9072 49.1587C51.2728 51.1625 53.3351 53.8408 56.1347 56.5571C59.41 59.735 62.8773 62.0645 65.5149 63.5975C66.8371 64.366 67.96 64.9396 68.7589 65.3239C69.1586 65.5161 69.4779 65.6613 69.7014 65.7601C69.8131 65.8095 69.901 65.8474 69.963 65.8737L70.0364 65.9046L70.0582 65.9136L70.0652 65.9165L70.1004 65.8426L88.2471 102.358C86.0898 102.687 83.4178 103.077 80.4592 103.468C80.202 103.321 79.8918 103.139 79.5331 102.923C78.3451 102.206 76.6258 101.107 74.5365 99.5983C70.3568 96.5797 64.7053 91.9258 58.8665 85.4114C53.0233 78.892 49.0914 72.9267 46.627 68.6086C45.3949 66.4499 44.5304 64.7041 43.9778 63.5084C43.7015 62.9106 43.5033 62.4504 43.3762 62.1451C43.3126 61.9925 43.2668 61.8786 43.238 61.8056L43.2072 61.727L43.2009 61.7105ZM51.9304 44.6766C51.8303 44.5039 51.748 44.3576 51.6835 44.2405L55.5243 36.5119L67.0772 59.7592C64.7136 58.3455 61.7709 56.3073 59.0057 53.6243C56.4458 51.1405 54.5568 48.6872 53.3111 46.8594C52.6892 45.9468 52.2302 45.194 51.9304 44.6766Z" fill="#FEFEFE"/>
</g>
<defs>
<clipPath id="clip0_576_183">
<rect width="109.372" height="109.372" fill="white" transform="translate(0.837891 0.253906)"/>
</clipPath>
</defs>
</svg>
