<?xml version="1.0" encoding="UTF-8"?>
<svg id="Layer_2" data-name="Layer 2" xmlns="http://www.w3.org/2000/svg" viewBox="0 0 65.11 89.9">
  <g id="Icons" fill="#FEFEFE">
    <g id="Party">
      <path d="m31.82,14.74L0,81.75l1.58.93c.42.24,8.78,5.06,23.07,6.69.33.17.56.28.6.3l.1-.22c2.72.29,5.65.45,8.77.45,18.65,0,29.18-7.57,29.62-7.9l1.36-1L31.82,14.74Zm.1,9.11l9.68,19.27c-1.89-.27-4.78-.89-7.59-2.25-3.28-1.59-5.99-4.1-7.49-5.66l5.39-11.36ZM5.23,80.05l3.64-7.67c1.08,2.61,2.61,5.71,4.54,8.13,1,1.25,2.11,2.38,3.25,3.4-5.47-1.29-9.39-2.9-11.43-3.86Zm28.89,5.85c-2.95,0-5.72-.17-8.29-.44-2.02-1.11-6.35-3.74-9.29-7.44-2.62-3.3-4.49-8.31-5.28-10.67l5.74-12.08c1.91,3.76,5.64,9.37,12.73,15.39,8.39,7.11,17.55,10.58,23.15,12.18-4.58,1.6-10.9,3.06-18.76,3.06Zm24.62-5.57l.03-.23c-.14-.02-14.37-2.26-26.46-12.5-9.24-7.83-12.25-14.86-13.04-17.14l5.42-11.42c1.8,1.72,4.42,3.89,7.56,5.42,5.53,2.69,11.14,2.87,11.38,2.88v-.14s16.32,32.47,16.32,32.47c-.34.2-.76.42-1.22.66Z"/>
      <rect x="18.28" y="9.79" width="4" height="7.17" transform="translate(4.85 32.15) rotate(-83.99)"/>
      <rect x="39.79" y="11.38" width="7.17" height="4" transform="translate(-1.16 4.61) rotate(-6.01)"/>
      <rect x="22.04" y="3.06" width="4" height="6.57" transform="translate(1 15.69) rotate(-36.87)"/>
      <rect x="36.33" y="4.34" width="6.57" height="4" transform="translate(10.77 34.23) rotate(-53.13)"/>
      <rect x="28.31" y="1.57" width="7.14" height="4" transform="translate(28.2 35.44) rotate(-89.82)"/>
      <rect x="40.2" y="17.58" width="4" height="6.33" transform="translate(13.14 57.72) rotate(-78.02)"/>
      <rect x="18.48" y="18.75" width="6.33" height="4" transform="translate(-3.84 4.95) rotate(-11.98)"/>
    </g>
  </g>
</svg>