<svg width="110" height="110" viewBox="0 0 110 110" fill="none" xmlns="http://www.w3.org/2000/svg">
<g clip-path="url(#clip0_576_186)">
<path d="M76.7485 23.796V12H72.6775V23.796H76.7485Z" fill="#FEFEFE"/>
<path fill-rule="evenodd" clip-rule="evenodd" d="M70.1159 41.6493L63.3898 37.4488C59.92 35.2819 61.4554 32.03 65.5462 32.03H83.8759C87.9667 32.03 89.5021 35.2819 86.0323 37.4488L79.3067 41.649C96.0957 43.8942 109.045 58.2732 109.045 75.6767C109.045 94.638 93.6738 110.009 74.7125 110.009C67.2798 110.009 60.3987 107.647 54.7789 103.633C49.1251 107.729 42.1739 110.144 34.6586 110.144C15.6973 110.144 0.326172 94.7723 0.326172 75.8111C0.326172 56.8498 15.6973 41.4786 34.6586 41.4786C42.0913 41.4786 48.9724 43.8405 54.5922 47.8548C59.0734 44.6084 64.3697 42.4181 70.1159 41.6493ZM74.7125 105.938C68.556 105.938 62.8289 104.1 58.0502 100.942C64.7813 94.6739 68.9911 85.7341 68.9911 75.8111C68.9911 65.8053 64.7108 56.7992 57.8813 50.524C62.6937 47.2974 68.4833 45.4152 74.7125 45.4152C91.4254 45.4152 104.974 58.9638 104.974 75.6767C104.974 92.3897 91.4254 105.938 74.7125 105.938ZM64.9201 75.8111C64.9201 66.7413 60.93 58.6034 54.6095 53.0571C48.3771 58.6001 44.451 66.6799 44.451 75.6767C44.451 84.7465 48.4411 92.8843 54.7616 98.4307C60.994 92.8877 64.9201 84.8079 64.9201 75.8111ZM40.38 75.6767C40.38 65.7537 44.5898 56.8139 51.3208 50.5459C46.5422 47.388 40.8151 45.5496 34.6586 45.5496C17.9457 45.5496 4.39715 59.0981 4.39715 75.8111C4.39715 92.524 17.9457 106.073 34.6586 106.073C40.8878 106.073 46.6774 104.19 51.4898 100.964C44.6603 94.6886 40.38 85.6825 40.38 75.6767Z" fill="#FEFEFE"/>
<path d="M93.5303 18.2706L86.277 27.573L83.0666 25.0698L90.3199 15.7674L93.5303 18.2706Z" fill="#FEFEFE"/>
<path d="M63.149 27.573L55.8957 18.2706L59.1061 15.7674L66.3594 25.0698L63.149 27.573Z" fill="#FEFEFE"/>
</g>
<defs>
<clipPath id="clip0_576_186">
<rect width="109.372" height="109.372" fill="white" transform="translate(0 0.253906)"/>
</clipPath>
</defs>
</svg>
