<?xml version="1.0" encoding="UTF-8"?>
<svg id="Layer_2" data-name="Layer 2" xmlns="http://www.w3.org/2000/svg" viewBox="0 0 101.19 88.8">
  <g id="Icons" fill="#FEFEFE">
    <g>
      <path d="m89.29,63.78c-3.34,0-5.15.96-6.61,1.72-1.29.68-2.31,1.22-4.56,1.22s-3.26-.54-4.55-1.22c-1.46-.77-3.27-1.72-6.61-1.72s-5.15.96-6.61,1.72c-1.29.68-2.31,1.22-4.56,1.22s-3.26-.54-4.55-1.22c-1.46-.77-3.27-1.72-6.61-1.72s-5.15.96-6.61,1.72c-1.29.68-2.31,1.22-4.55,1.22s-3.26-.54-4.55-1.22c-1.46-.77-3.27-1.72-6.61-1.72s-5.15.96-6.61,1.72c-.67.35-1.26.66-1.99.88l-5.6-.16c-.52-.2-1-.45-1.51-.72-1.46-.77-3.27-1.72-6.61-1.72v4.41c2.24,0,3.26.54,4.55,1.22,1.46.77,3.27,1.72,6.61,1.72s5.15-.96,6.61-1.72c1.29-.68,2.31-1.22,4.55-1.22s3.26.54,4.55,1.22c1.46.77,3.27,1.72,6.61,1.72s5.15-.96,6.61-1.72c1.29-.68,2.31-1.22,4.55-1.22s3.26.54,4.55,1.22c1.46.77,3.27,1.72,6.61,1.72s5.15-.96,6.61-1.72c1.29-.68,2.31-1.22,4.55-1.22s3.26.54,4.55,1.22c1.46.77,3.27,1.72,6.61,1.72s5.15-.96,6.61-1.72c.67-.35,1.27-.66,1.99-.88l5.6.16c.53.2,1,.45,1.52.72,1.46.77,3.27,1.72,6.61,1.72v-4.41c-2.25,0-3.27-.54-4.56-1.22-1.46-.77-3.27-1.72-6.61-1.72Z"/>
      <path d="m89.29,81.45c-3.34,0-5.15.96-6.61,1.72-1.29.68-2.31,1.22-4.56,1.22s-3.26-.54-4.55-1.22c-1.46-.77-3.27-1.72-6.61-1.72s-5.15.96-6.61,1.72c-1.29.68-2.31,1.22-4.56,1.22s-3.26-.54-4.55-1.22c-1.46-.77-3.27-1.72-6.61-1.72s-5.15.96-6.61,1.72c-1.29.68-2.31,1.22-4.55,1.22s-3.26-.54-4.55-1.22c-1.46-.77-3.27-1.72-6.61-1.72s-5.15.96-6.61,1.72c-.67.35-1.26.66-1.99.88l-5.6-.16c-.52-.2-1-.45-1.51-.72-1.46-.77-3.27-1.72-6.61-1.72v4.41c2.24,0,3.26.54,4.55,1.22,1.46.77,3.27,1.72,6.61,1.72s5.15-.96,6.61-1.72c1.29-.68,2.31-1.22,4.55-1.22s3.26.54,4.55,1.22c1.46.77,3.27,1.72,6.61,1.72s5.15-.96,6.61-1.72c1.29-.68,2.31-1.22,4.55-1.22s3.26.54,4.55,1.22c1.46.77,3.27,1.72,6.61,1.72s5.15-.96,6.61-1.72c1.29-.68,2.31-1.22,4.55-1.22s3.26.54,4.55,1.22c1.46.77,3.27,1.72,6.61,1.72s5.15-.96,6.61-1.72c.67-.35,1.27-.66,2-.88l5.6.16c.53.2,1,.45,1.52.72,1.46.77,3.27,1.72,6.61,1.72v-4.41c-2.25,0-3.27-.54-4.56-1.22-1.46-.77-3.27-1.72-6.61-1.72Z"/>
      <path d="m73.92,0c-7.59,0-14.47,3.12-19.41,8.13C49.55,3.12,42.67,0,35.08,0,20.04,0,7.81,12.24,7.81,27.28v29.1c0,.43.01.86.03,1.29v3.79h4.41v-9.02h34.37v9.02h4.42V27.28c0-4.44,1.28-8.59,3.47-12.09.82-1.32,1.78-2.54,2.84-3.66,4.17-4.38,10.05-7.12,16.57-7.12,12.6,0,22.86,10.25,22.86,22.87v1.82h4.41v-1.82c0-15.04-12.23-27.28-27.27-27.28Zm-27.29,47.93H12.22v-12.76h34.41v12.76Zm0-20.65v3.38H12.22v-3.38c0-12.62,10.26-22.87,22.86-22.87,6.52,0,12.4,2.74,16.58,7.12-3.17,4.44-5.03,9.88-5.03,15.75Z"/>
    </g>
  </g>
</svg>